<?xml version="1.0" encoding="UTF-8"?>
<!DOCTYPE svg PUBLIC "-//W3C//DTD SVG 1.1//EN" "http://www.w3.org/Graphics/SVG/1.1/DTD/svg11.dtd">
<svg xmlns="http://www.w3.org/2000/svg" version="1.1" width="808px" height="309px" style="shape-rendering:geometricPrecision; text-rendering:geometricPrecision; image-rendering:optimizeQuality; fill-rule:evenodd; clip-rule:evenodd" xmlns:xlink="http://www.w3.org/1999/xlink">
<g><path style="opacity:1" fill="#8c3b3f" d="M 161.5,49.5 C 153.648,49.1746 145.982,49.508 138.5,50.5C 138.167,50.5 137.833,50.5 137.5,50.5C 133.534,51.1621 129.534,51.4955 125.5,51.5C 128.903,50.0749 132.57,49.2415 136.5,49C 145.01,48.1768 153.344,48.3434 161.5,49.5 Z"/></g>
<g><path style="opacity:0.592" fill="#7b3833" d="M 162.5,49.5 C 166.078,49.5488 169.411,50.2154 172.5,51.5C 168.84,51.8412 165.507,51.1745 162.5,49.5 Z"/></g>
<g><path style="opacity:0.373" fill="#732b2b" d="M 172.5,51.5 C 177.165,52.0569 181.498,53.3902 185.5,55.5C 183.139,55.3259 180.806,54.9926 178.5,54.5C 176.5,53.5 174.5,52.5 172.5,51.5 Z"/></g>
<g><path style="opacity:1" fill="#d74b4e" d="M 138.5,50.5 C 145.982,49.508 153.648,49.1746 161.5,49.5C 161.833,49.5 162.167,49.5 162.5,49.5C 165.507,51.1745 168.84,51.8412 172.5,51.5C 174.5,52.5 176.5,53.5 178.5,54.5C 172.551,54.677 166.885,53.5103 161.5,51C 153.841,50.5003 146.174,50.3336 138.5,50.5 Z"/></g>
<g><path style="opacity:1" fill="#e84545" d="M 137.5,50.5 C 137.833,50.5 138.167,50.5 138.5,50.5C 146.174,50.3336 153.841,50.5003 161.5,51C 166.885,53.5103 172.551,54.677 178.5,54.5C 180.806,54.9926 183.139,55.3259 185.5,55.5C 185.328,56.4916 185.662,57.1583 186.5,57.5C 186.063,59.0744 185.063,60.2411 183.5,61C 180.199,61.9967 176.866,62.3301 173.5,62C 174.685,60.647 176.019,59.4803 177.5,58.5C 175.833,58.1667 174.167,57.8333 172.5,57.5C 158.847,58.5737 145.18,58.7403 131.5,58C 129.167,57 126.833,56 124.5,55C 125.167,54.3333 125.833,53.6667 126.5,53C 130.465,52.8923 134.132,52.059 137.5,50.5 Z"/></g>
<g><path style="opacity:0.498" fill="#823a3a" d="M 185.5,55.5 C 187.819,55.9925 189.819,56.9925 191.5,58.5C 189.784,58.3713 188.117,58.038 186.5,57.5C 185.662,57.1583 185.328,56.4916 185.5,55.5 Z"/></g>
<g><path style="opacity:1" fill="#9c3d40" d="M 125.5,51.5 C 116.901,55.1272 108.235,58.7938 99.5,62.5C 107.17,56.6699 115.837,53.0032 125.5,51.5 Z"/></g>
<g><path style="opacity:1" fill="#9f4041" d="M 191.5,58.5 C 196.024,60.0435 200.024,62.3768 203.5,65.5C 198.947,64.4377 194.947,62.4377 191.5,59.5C 191.5,59.1667 191.5,58.8333 191.5,58.5 Z"/></g>
<g><path style="opacity:0.805" fill="#863c3f" d="M 373.5,68.5 C 371.304,66.4554 368.97,66.1221 366.5,67.5C 365.833,67.5 365.167,67.5 364.5,67.5C 365.973,64.7526 368.306,63.9193 371.5,65C 372.823,65.8159 373.489,66.9826 373.5,68.5 Z"/></g>
<g><path style="opacity:0.341" fill="#6f2b2b" d="M 119.5,64.5 C 116.164,66.7306 112.497,68.3973 108.5,69.5C 111.645,66.8872 115.311,65.2205 119.5,64.5 Z"/></g>
<g><path style="opacity:1" fill="#e54647" d="M 191.5,59.5 C 194.947,62.4377 198.947,64.4377 203.5,65.5C 203.539,66.5832 203.873,67.5832 204.5,68.5C 206.737,69.1321 208.403,70.4654 209.5,72.5C 210.736,73.2458 212.07,73.5792 213.5,73.5C 214.167,76.8333 216.167,78.8333 219.5,79.5C 220.08,81.7488 221.413,83.4154 223.5,84.5C 223.561,88.0709 225.227,90.4042 228.5,91.5C 228.241,93.9893 229.241,95.656 231.5,96.5C 231.909,100.056 232.909,103.389 234.5,106.5C 234.67,108.848 235.003,111.182 235.5,113.5C 234.232,116.314 233.399,119.314 233,122.5C 231.235,120.608 229.735,118.608 228.5,116.5C 226.164,109.492 222.997,102.825 219,96.5C 218.329,95.7476 217.496,95.4142 216.5,95.5C 216.446,93.368 215.446,92.0347 213.5,91.5C 211.844,89.5398 210.177,87.5398 208.5,85.5C 207.833,82.8333 206.167,81.1667 203.5,80.5C 202.415,78.4131 200.749,77.0798 198.5,76.5C 197.522,73.6752 195.522,72.3419 192.5,72.5C 191.972,71.2794 191.305,70.1127 190.5,69C 188.277,68.4338 186.277,67.6005 184.5,66.5C 183.942,65.2101 182.942,64.3768 181.5,64C 185.02,62.5776 188.353,61.0776 191.5,59.5 Z"/></g>
<g><path style="opacity:1" fill="#a54443" d="M 203.5,65.5 C 207.238,67.697 210.571,70.3637 213.5,73.5C 212.07,73.5792 210.736,73.2458 209.5,72.5C 208.403,70.4654 206.737,69.1321 204.5,68.5C 203.873,67.5832 203.539,66.5832 203.5,65.5 Z"/></g>
<g><path style="opacity:1" fill="#a24042" d="M 172.5,63.5 C 176.643,63.9035 180.643,64.9035 184.5,66.5C 186.277,67.6005 188.277,68.4338 190.5,69C 191.305,70.1127 191.972,71.2794 192.5,72.5C 185.992,69.1102 179.326,66.1102 172.5,63.5 Z"/></g>
<g><path style="opacity:1" fill="#e04748" d="M 137.5,50.5 C 134.132,52.059 130.465,52.8923 126.5,53C 125.833,53.6667 125.167,54.3333 124.5,55C 126.833,56 129.167,57 131.5,58C 145.18,58.7403 158.847,58.5737 172.5,57.5C 174.167,57.8333 175.833,58.1667 177.5,58.5C 176.019,59.4803 174.685,60.647 173.5,62C 176.866,62.3301 180.199,61.9967 183.5,61C 185.063,60.2411 186.063,59.0744 186.5,57.5C 188.117,58.038 189.784,58.3713 191.5,58.5C 191.5,58.8333 191.5,59.1667 191.5,59.5C 188.353,61.0776 185.02,62.5776 181.5,64C 182.942,64.3768 183.942,65.2101 184.5,66.5C 180.643,64.9035 176.643,63.9035 172.5,63.5C 172.167,63.5 171.833,63.5 171.5,63.5C 167.89,61.4259 163.89,60.2593 159.5,60C 150.422,59.1965 141.422,59.3631 132.5,60.5C 127.548,60.1496 123.214,61.483 119.5,64.5C 115.311,65.2205 111.645,66.8872 108.5,69.5C 107.486,70.6737 106.153,71.3404 104.5,71.5C 101.514,71.4355 99.1803,72.6021 97.5,75C 95.5273,75.4955 93.5273,75.6621 91.5,75.5C 91.5,76.8333 91.5,78.1667 91.5,79.5C 91.1667,80.1667 90.8333,80.8333 90.5,81.5C 87.8333,84.8333 84.8333,87.8333 81.5,90.5C 80.8333,90.8333 80.1667,91.1667 79.5,91.5C 79.6427,89.7376 79.3094,88.0709 78.5,86.5C 78.8457,85.3044 79.3457,85.3044 80,86.5C 80.4828,85.552 80.6495,84.552 80.5,83.5C 78.3146,83.7036 76.3146,84.3702 74.5,85.5C 75.6005,84.3951 76.2671,83.0618 76.5,81.5C 78.8333,81.1667 80.1667,79.8333 80.5,77.5C 84.7908,74.8769 88.4575,71.5436 91.5,67.5C 93.6291,65.0499 96.2957,63.3833 99.5,62.5C 108.235,58.7938 116.901,55.1272 125.5,51.5C 129.534,51.4955 133.534,51.1621 137.5,50.5 Z"/></g>
<g><path style="opacity:0.973" fill="#9d3f3f" d="M 132.5,60.5 C 132.5,60.8333 132.5,61.1667 132.5,61.5C 128.207,62.6566 123.873,63.6566 119.5,64.5C 123.214,61.483 127.548,60.1496 132.5,60.5 Z"/></g>
<g><path style="opacity:0.137" fill="#682928" d="M 171.5,63.5 C 158.63,60.5073 145.63,59.8406 132.5,61.5C 132.5,61.1667 132.5,60.8333 132.5,60.5C 141.422,59.3631 150.422,59.1965 159.5,60C 163.89,60.2593 167.89,61.4259 171.5,63.5 Z"/></g>
<g><path style="opacity:0.816" fill="#993c3e" d="M 192.5,72.5 C 195.522,72.3419 197.522,73.6752 198.5,76.5C 196.223,75.5514 194.223,74.2181 192.5,72.5 Z"/></g>
<g><path style="opacity:0.506" fill="#6d2d2e" d="M 91.5,67.5 C 88.4575,71.5436 84.7908,74.8769 80.5,77.5C 80.5106,75.9826 81.1772,74.8159 82.5,74C 85.3968,71.59 88.3968,69.4233 91.5,67.5 Z"/></g>
<g><path style="opacity:1" fill="#c04549" d="M 104.5,71.5 C 102.469,73.5224 100.135,75.1891 97.5,76.5C 95.9731,76.427 94.9731,77.0937 94.5,78.5C 94.5,79.1667 94.1667,79.5 93.5,79.5C 92.8333,79.5 92.1667,79.5 91.5,79.5C 91.5,78.1667 91.5,76.8333 91.5,75.5C 93.5273,75.6621 95.5273,75.4955 97.5,75C 99.1803,72.6021 101.514,71.4355 104.5,71.5 Z"/></g>
<g><path style="opacity:0.871" fill="#863439" d="M 198.5,76.5 C 200.749,77.0798 202.415,78.4131 203.5,80.5C 201.251,79.9202 199.585,78.5869 198.5,76.5 Z"/></g>
<g><path style="opacity:0.878" fill="#8e3b37" d="M 213.5,73.5 C 215.833,75.1667 217.833,77.1667 219.5,79.5C 216.167,78.8333 214.167,76.8333 213.5,73.5 Z"/></g>
<g><path style="opacity:1" fill="#b64749" d="M 364.5,67.5 C 365.167,67.5 365.833,67.5 366.5,67.5C 364.037,70.763 362.37,74.4297 361.5,78.5C 360.817,78.8627 360.15,79.1961 359.5,79.5C 359.5,78.8333 359.5,78.1667 359.5,77.5C 360.659,73.8487 362.326,70.5154 364.5,67.5 Z"/></g>
<g><path style="opacity:0.012" fill="#671c1b" d="M 97.5,76.5 C 97.0269,77.9063 96.0269,78.573 94.5,78.5C 94.9731,77.0937 95.9731,76.427 97.5,76.5 Z"/></g>
<g><path style="opacity:0.953" fill="#973f39" d="M 80.5,77.5 C 80.1667,79.8333 78.8333,81.1667 76.5,81.5C 77.5,79.8333 78.8333,78.5 80.5,77.5 Z"/></g>
<g><path style="opacity:0.024" fill="#652b2b" d="M 91.5,79.5 C 92.1667,79.5 92.8333,79.5 93.5,79.5C 93.0269,80.9063 92.0269,81.573 90.5,81.5C 90.8333,80.8333 91.1667,80.1667 91.5,79.5 Z"/></g>
<g><path style="opacity:0.933" fill="#973e3c" d="M 203.5,80.5 C 206.167,81.1667 207.833,82.8333 208.5,85.5C 206.5,84.1667 204.833,82.5 203.5,80.5 Z"/></g>
<g><path style="opacity:0.659" fill="#71322c" d="M 219.5,79.5 C 221.587,80.5846 222.92,82.2512 223.5,84.5C 221.413,83.4154 220.08,81.7488 219.5,79.5 Z"/></g>
<g><path style="opacity:1" fill="#d8484c" d="M 366.5,67.5 C 368.97,66.1221 371.304,66.4554 373.5,68.5C 374.674,69.5137 375.34,70.847 375.5,72.5C 377.223,78.276 379.223,83.9426 381.5,89.5C 379.207,86.9389 377.373,83.9389 376,80.5C 375.107,81.7112 374.274,81.7112 373.5,80.5C 374.895,76.6137 374.395,72.947 372,69.5C 370.556,67.8446 368.722,67.178 366.5,67.5 Z"/></g>
<g><path style="opacity:0.592" fill="#7d302e" d="M 76.5,81.5 C 76.2671,83.0618 75.6005,84.3951 74.5,85.5C 73.194,87.4727 71.5273,89.1394 69.5,90.5C 71.1108,86.9485 73.4442,83.9485 76.5,81.5 Z"/></g>
<g><path style="opacity:0.914" fill="#943c3b" d="M 359.5,77.5 C 359.5,78.1667 359.5,78.8333 359.5,79.5C 357.578,85.0161 354.912,90.0161 351.5,94.5C 353.403,88.4484 356.07,82.7817 359.5,77.5 Z"/></g>
<g><path style="opacity:1" fill="#993b3a" d="M 223.5,84.5 C 225.9,86.2964 227.567,88.6298 228.5,91.5C 225.227,90.4042 223.561,88.0709 223.5,84.5 Z"/></g>
<g><path style="opacity:1" fill="#973c3f" d="M 375.5,72.5 C 382.332,85.5017 388.666,98.8351 394.5,112.5C 390.247,105.663 386.247,98.6628 382.5,91.5C 382.672,90.5084 382.338,89.8417 381.5,89.5C 379.223,83.9426 377.223,78.276 375.5,72.5 Z"/></g>
<g><path style="opacity:0.075" fill="#652323" d="M 81.5,90.5 C 80.9202,92.7488 79.5869,94.4154 77.5,95.5C 77.7329,93.9382 78.3995,92.6049 79.5,91.5C 80.1667,91.1667 80.8333,90.8333 81.5,90.5 Z"/></g>
<g><path style="opacity:0.584" fill="#7d3537" d="M 213.5,91.5 C 215.446,92.0347 216.446,93.368 216.5,95.5C 215.026,94.5637 214.026,93.2303 213.5,91.5 Z"/></g>
<g><path style="opacity:0.427" fill="#93383a" d="M 228.5,91.5 C 229.89,92.8993 230.89,94.5659 231.5,96.5C 229.241,95.656 228.241,93.9893 228.5,91.5 Z"/></g>
<g><path style="opacity:1" fill="#e74546" d="M 366.5,67.5 C 368.722,67.178 370.556,67.8446 372,69.5C 374.395,72.947 374.895,76.6137 373.5,80.5C 374.274,81.7112 375.107,81.7112 376,80.5C 377.373,83.9389 379.207,86.9389 381.5,89.5C 382.338,89.8417 382.672,90.5084 382.5,91.5C 382.993,93.8056 383.326,96.139 383.5,98.5C 382.5,98.5 381.5,98.5 380.5,98.5C 380.293,104.524 382.126,105.524 386,101.5C 387.516,103.779 387.683,105.779 386.5,107.5C 385.833,106.833 385.167,106.167 384.5,105.5C 383.676,108.785 383.176,112.118 383,115.5C 381.667,111.5 380.333,111.5 379,115.5C 376.825,111.469 375.492,107.136 375,102.5C 373.499,100.416 371.499,99.0831 369,98.5C 365.931,99.8745 365.764,101.541 368.5,103.5C 370.876,102.183 372.543,102.85 373.5,105.5C 373.253,106.713 372.586,107.38 371.5,107.5C 368.629,106.014 367.295,107.014 367.5,110.5C 364.107,112.073 362.774,114.74 363.5,118.5C 360.312,120.692 358.312,123.692 357.5,127.5C 356.527,128.984 355.193,129.484 353.5,129C 355.037,127.89 355.703,126.39 355.5,124.5C 353.833,124.5 352.167,124.5 350.5,124.5C 350.261,122.533 350.594,120.699 351.5,119C 350.256,118.544 349.423,119.044 349,120.5C 345.853,117.869 344.353,114.536 344.5,110.5C 347.892,105.708 350.225,100.374 351.5,94.5C 354.912,90.0161 357.578,85.0161 359.5,79.5C 360.15,79.1961 360.817,78.8627 361.5,78.5C 362.37,74.4297 364.037,70.763 366.5,67.5 Z"/></g>
<g><path style="opacity:0.996" fill="#953335" d="M 77.5,95.5 C 76.6493,97.8816 75.316,99.8816 73.5,101.5C 74.1495,99.5648 74.4828,97.5648 74.5,95.5C 75.5,95.5 76.5,95.5 77.5,95.5 Z"/></g>
<g><path style="opacity:1" fill="#a13e3e" d="M 69.5,90.5 C 69.6567,91.8734 69.49,93.2068 69,94.5C 67.2501,96.7039 65.4168,98.7039 63.5,100.5C 64.4977,96.4945 66.4977,93.1612 69.5,90.5 Z"/></g>
<g><path style="opacity:1" fill="#e24748" d="M 79.5,91.5 C 78.3995,92.6049 77.7329,93.9382 77.5,95.5C 76.5,95.5 75.5,95.5 74.5,95.5C 74.4828,97.5648 74.1495,99.5648 73.5,101.5C 71.2036,102.733 69.8702,104.733 69.5,107.5C 66.3944,111.709 64.3944,116.376 63.5,121.5C 62.5041,121.414 61.6708,121.748 61,122.5C 60.2811,126.145 59.7811,129.812 59.5,133.5C 58.1775,136.739 56.8442,140.072 55.5,143.5C 54.8182,142.757 54.1515,142.091 53.5,141.5C 53.7572,135.957 53.7572,130.624 53.5,125.5C 53.5,124.833 53.8333,124.5 54.5,124.5C 57.4866,116.546 60.4866,108.546 63.5,100.5C 65.4168,98.7039 67.2501,96.7039 69,94.5C 69.49,93.2068 69.6567,91.8734 69.5,90.5C 71.5273,89.1394 73.194,87.4727 74.5,85.5C 76.3146,84.3702 78.3146,83.7036 80.5,83.5C 80.6495,84.552 80.4828,85.552 80,86.5C 79.3457,85.3044 78.8457,85.3044 78.5,86.5C 79.3094,88.0709 79.6427,89.7376 79.5,91.5 Z"/></g>
<g><path style="opacity:0.988" fill="#9e4142" d="M 351.5,94.5 C 350.225,100.374 347.892,105.708 344.5,110.5C 344.167,110.5 343.833,110.5 343.5,110.5C 345.659,104.849 348.326,99.5156 351.5,94.5 Z"/></g>
<g><path style="opacity:0.643" fill="#82322f" d="M 73.5,101.5 C 72.6597,103.853 71.3264,105.853 69.5,107.5C 69.8702,104.733 71.2036,102.733 73.5,101.5 Z"/></g>
<g><path style="opacity:1" fill="#9c3e40" d="M 231.5,96.5 C 234.267,100.374 236.267,104.707 237.5,109.5C 236.272,108.694 235.272,107.694 234.5,106.5C 232.909,103.389 231.909,100.056 231.5,96.5 Z"/></g>
<g><path style="opacity:0.325" fill="#732a2b" d="M 136.5,103.5 C 138.674,103.75 140.341,104.75 141.5,106.5C 139.326,106.25 137.659,105.25 136.5,103.5 Z"/></g>
<g><path style="opacity:0.718" fill="#8c3333" d="M 136.5,103.5 C 134.833,103.5 133.167,103.5 131.5,103.5C 132.382,106.385 133.716,109.052 135.5,111.5C 134.604,110.494 133.938,110.494 133.5,111.5C 133.167,111.5 132.833,111.5 132.5,111.5C 131.821,107.827 129.821,106.827 126.5,108.5C 128.279,106.537 129.946,104.371 131.5,102C 133.391,101.797 135.057,102.297 136.5,103.5 Z"/></g>
<g><path style="opacity:1" fill="#d3484b" d="M 136.5,103.5 C 137.659,105.25 139.326,106.25 141.5,106.5C 141.833,106.5 142.167,106.5 142.5,106.5C 142.5,107.167 142.5,107.833 142.5,108.5C 140.516,108.617 138.85,107.95 137.5,106.5C 136.126,109.331 136.793,111.664 139.5,113.5C 141.045,114.452 142.712,114.785 144.5,114.5C 144.028,117.358 145.028,119.358 147.5,120.5C 146.833,120.5 146.167,120.5 145.5,120.5C 144.508,120.672 143.842,120.338 143.5,119.5C 143.167,117.167 141.833,115.833 139.5,115.5C 137.833,114.5 136.5,113.167 135.5,111.5C 133.716,109.052 132.382,106.385 131.5,103.5C 133.167,103.5 134.833,103.5 136.5,103.5 Z"/></g>
<g><path style="opacity:0.667" fill="#873737" d="M 142.5,106.5 C 145.871,108.846 149.204,111.179 152.5,113.5C 148.926,112.379 145.592,110.713 142.5,108.5C 142.5,107.833 142.5,107.167 142.5,106.5 Z"/></g>
<g><path style="opacity:0.973" fill="#903a39" d="M 216.5,95.5 C 217.496,95.4142 218.329,95.7476 219,96.5C 222.997,102.825 226.164,109.492 228.5,116.5C 228.5,117.5 228.5,118.5 228.5,119.5C 225.06,111.287 221.06,103.287 216.5,95.5 Z"/></g>
<g><path style="opacity:0.871" fill="#8e3739" d="M 63.5,100.5 C 60.4866,108.546 57.4866,116.546 54.5,124.5C 55.8715,115.78 58.8715,107.78 63.5,100.5 Z"/></g>
<g><path style="opacity:0.459" fill="#883738" d="M 371.5,107.5 C 372.573,112.979 374.74,117.979 378,122.5C 378.494,124.134 378.66,125.801 378.5,127.5C 374.821,121.475 371.654,115.142 369,108.5C 368.722,109.416 368.222,110.082 367.5,110.5C 367.295,107.014 368.629,106.014 371.5,107.5 Z"/></g>
<g><path style="opacity:0.933" fill="#8b3634" d="M 152.5,113.5 C 154.882,114.351 156.882,115.684 158.5,117.5C 155.733,117.13 153.733,115.796 152.5,113.5 Z"/></g>
<g><path style="opacity:1" fill="#d64a4b" d="M 234.5,106.5 C 235.272,107.694 236.272,108.694 237.5,109.5C 237.025,113.416 238.025,116.749 240.5,119.5C 241.434,120.568 241.768,121.901 241.5,123.5C 242.267,133.815 242.601,144.148 242.5,154.5C 242.5,154.833 242.5,155.167 242.5,155.5C 240.124,160.106 239.124,165.106 239.5,170.5C 238.833,170.833 238.167,171.167 237.5,171.5C 240.814,155.379 241.314,138.379 239,120.5C 238.751,119.376 238.251,118.376 237.5,117.5C 236.534,119.396 236.201,121.396 236.5,123.5C 235.178,123.33 234.011,123.663 233,124.5C 232.505,126.473 232.338,128.473 232.5,130.5C 232.02,127.922 231.02,125.588 229.5,123.5C 228.566,122.432 228.232,121.099 228.5,119.5C 228.5,118.5 228.5,117.5 228.5,116.5C 229.735,118.608 231.235,120.608 233,122.5C 233.399,119.314 234.232,116.314 235.5,113.5C 235.003,111.182 234.67,108.848 234.5,106.5 Z"/></g>
<g><path style="opacity:0.992" fill="#9a403f" d="M 367.5,110.5 C 366.674,113.485 365.341,116.151 363.5,118.5C 362.774,114.74 364.107,112.073 367.5,110.5 Z"/></g>
<g><path style="opacity:0.8" fill="#793133" d="M 139.5,115.5 C 141.833,115.833 143.167,117.167 143.5,119.5C 141.833,118.5 140.5,117.167 139.5,115.5 Z"/></g>
<g><path style="opacity:0.835" fill="#993f41" d="M 237.5,109.5 C 239.277,112.505 240.277,115.838 240.5,119.5C 238.025,116.749 237.025,113.416 237.5,109.5 Z"/></g>
<g><path style="opacity:0.439" fill="#7c2829" d="M 69.5,107.5 C 68.0178,112.456 66.0178,117.123 63.5,121.5C 64.3944,116.376 66.3944,111.709 69.5,107.5 Z"/></g>
<g><path style="opacity:0.059" fill="#6b2b28" d="M 158.5,117.5 C 160.027,117.427 161.027,118.094 161.5,119.5C 159.973,119.573 158.973,118.906 158.5,117.5 Z"/></g>
<g><path style="opacity:0.667" fill="#8e3737" d="M 343.5,110.5 C 342.631,115.478 340.631,119.811 337.5,123.5C 339.122,118.954 341.122,114.621 343.5,110.5 Z"/></g>
<g><path style="opacity:0.059" fill="#6e2f26" d="M 161.5,119.5 C 163.027,119.427 164.027,120.094 164.5,121.5C 162.973,121.573 161.973,120.906 161.5,119.5 Z"/></g>
<g><path style="opacity:0.073" fill="#622722" d="M 125.5,110.5 C 125.313,115.845 124.98,121.178 124.5,126.5C 124.167,126.5 123.833,126.5 123.5,126.5C 123.255,120.916 123.922,115.583 125.5,110.5 Z"/></g>
<g><path style="opacity:0.624" fill="#7a342b" d="M 145.5,120.5 C 146.167,120.5 146.833,120.5 147.5,120.5C 149.167,122.5 150.833,124.5 152.5,126.5C 149.573,125.243 147.239,123.243 145.5,120.5 Z"/></g>
<g><path style="opacity:1" fill="#e54646" d="M 382.5,91.5 C 386.247,98.6628 390.247,105.663 394.5,112.5C 394.192,114.924 394.526,117.257 395.5,119.5C 397.684,121.664 399.017,124.331 399.5,127.5C 400.183,127.863 400.85,128.196 401.5,128.5C 402.5,131.167 403.5,133.833 404.5,136.5C 402.851,135.286 401.185,133.953 399.5,132.5C 398.914,132.709 398.414,133.043 398,133.5C 397.505,135.473 397.338,137.473 397.5,139.5C 395.41,139.55 394.077,138.55 393.5,136.5C 395.029,133.246 396.362,129.913 397.5,126.5C 395.984,124.609 394.65,122.609 393.5,120.5C 391.955,119.548 390.288,119.215 388.5,119.5C 387.907,116.404 388.907,114.071 391.5,112.5C 390.923,110.45 389.59,109.45 387.5,109.5C 385.749,112.929 385.249,116.595 386,120.5C 386.98,122.059 387.813,123.726 388.5,125.5C 389.396,124.494 390.062,124.494 390.5,125.5C 387.671,126.825 387.004,128.825 388.5,131.5C 389.72,130.289 390.887,130.289 392,131.5C 390.738,135.756 391.572,139.589 394.5,143C 395.448,143.483 396.448,143.649 397.5,143.5C 396.384,146.664 394.717,149.664 392.5,152.5C 393.325,153.386 394.325,153.719 395.5,153.5C 393.613,159.141 394.78,159.808 399,155.5C 399.684,157.479 399.184,159.146 397.5,160.5C 399.236,163.234 400.236,166.234 400.5,169.5C 399.542,169.047 398.708,168.381 398,167.5C 397.883,163.92 396.383,161.253 393.5,159.5C 391.378,153.904 389.211,148.238 387,142.5C 386.34,140.676 385.173,139.343 383.5,138.5C 382.624,134.418 380.957,130.751 378.5,127.5C 378.66,125.801 378.494,124.134 378,122.5C 374.74,117.979 372.573,112.979 371.5,107.5C 372.586,107.38 373.253,106.713 373.5,105.5C 372.543,102.85 370.876,102.183 368.5,103.5C 365.764,101.541 365.931,99.8745 369,98.5C 371.499,99.0831 373.499,100.416 375,102.5C 375.492,107.136 376.825,111.469 379,115.5C 380.333,111.5 381.667,111.5 383,115.5C 383.176,112.118 383.676,108.785 384.5,105.5C 385.167,106.167 385.833,106.833 386.5,107.5C 387.683,105.779 387.516,103.779 386,101.5C 382.126,105.524 380.293,104.524 380.5,98.5C 381.5,98.5 382.5,98.5 383.5,98.5C 383.326,96.139 382.993,93.8056 382.5,91.5 Z"/></g>
<g><path style="opacity:1" fill="#9d3d3f" d="M 165.5,121.5 C 171.795,125.141 177.795,129.141 183.5,133.5C 178.915,131.869 174.581,129.869 170.5,127.5C 169.33,125.721 167.664,124.721 165.5,124.5C 165.5,123.5 165.5,122.5 165.5,121.5 Z"/></g>
<g><path style="opacity:1" fill="#bf454d" d="M 394.5,112.5 C 397.341,116.849 399.674,121.516 401.5,126.5C 401.5,127.167 401.5,127.833 401.5,128.5C 400.85,128.196 400.183,127.863 399.5,127.5C 399.017,124.331 397.684,121.664 395.5,119.5C 394.526,117.257 394.192,114.924 394.5,112.5 Z"/></g>
<g><path style="opacity:0.62" fill="#8d3438" d="M 63.5,121.5 C 62.4582,125.697 61.1249,129.697 59.5,133.5C 59.7811,129.812 60.2811,126.145 61,122.5C 61.6708,121.748 62.5041,121.414 63.5,121.5 Z"/></g>
<g><path style="opacity:1" fill="#e64546" d="M 343.5,110.5 C 343.833,110.5 344.167,110.5 344.5,110.5C 344.353,114.536 345.853,117.869 349,120.5C 349.423,119.044 350.256,118.544 351.5,119C 350.594,120.699 350.261,122.533 350.5,124.5C 352.167,124.5 353.833,124.5 355.5,124.5C 355.703,126.39 355.037,127.89 353.5,129C 355.193,129.484 356.527,128.984 357.5,127.5C 355.26,131.095 353.927,135.095 353.5,139.5C 352.504,139.414 351.671,139.748 351,140.5C 350.338,142.813 349.838,145.146 349.5,147.5C 347.193,151.437 344.86,155.437 342.5,159.5C 341.805,157.022 340.305,155.022 338,153.5C 337.808,155.577 337.308,157.577 336.5,159.5C 334.304,155.229 332.637,150.729 331.5,146C 331.945,144.553 332.612,143.22 333.5,142C 333.333,141.5 333.167,141 333,140.5C 332.329,141.252 331.496,141.586 330.5,141.5C 331.15,139.565 331.483,137.565 331.5,135.5C 335.885,132.911 337.885,128.911 337.5,123.5C 340.631,119.811 342.631,115.478 343.5,110.5 Z"/></g>
<g><path style="opacity:0.746" fill="#883d43" d="M 484.5,127.5 C 478.167,127.5 471.833,127.5 465.5,127.5C 465.611,126.883 465.944,126.383 466.5,126C 468.833,125.833 471.167,125.667 473.5,125.5C 477.447,125.363 481.114,126.03 484.5,127.5 Z"/></g>
<g><path style="opacity:0.737" fill="#934141" d="M 655.5,137.5 C 656.159,134.545 656.492,131.545 656.5,128.5C 654.833,128.5 653.167,128.5 651.5,128.5C 628.339,127.502 605.006,127.169 581.5,127.5C 581.611,126.883 581.944,126.383 582.5,126C 606.5,125.333 630.5,125.333 654.5,126C 657.203,126.865 658.536,128.699 658.5,131.5C 658.533,134.102 657.533,136.102 655.5,137.5 Z"/></g>
<g><path style="opacity:0.973" fill="#8f4041" d="M 735.5,125.5 C 735.5,125.833 735.5,126.167 735.5,126.5C 725.815,126.422 716.148,126.755 706.5,127.5C 715.902,124.69 725.569,124.024 735.5,125.5 Z"/></g>
<g><path style="opacity:0.322" fill="#6b3838" d="M 735.5,125.5 C 737.698,125.875 739.698,126.542 741.5,127.5C 739.5,127.5 737.5,127.5 735.5,127.5C 735.5,127.167 735.5,126.833 735.5,126.5C 735.5,126.167 735.5,125.833 735.5,125.5 Z"/></g>
<g><path style="opacity:0.998" fill="#d54d4e" d="M 132.5,111.5 C 131.141,110.993 130.141,109.993 129.5,108.5C 128.029,109.381 127.196,110.714 127,112.5C 126.931,123.05 126.098,133.383 124.5,143.5C 124.5,137.833 124.5,132.167 124.5,126.5C 124.98,121.178 125.313,115.845 125.5,110.5C 125.328,109.508 125.662,108.842 126.5,108.5C 129.821,106.827 131.821,107.827 132.5,111.5 Z"/></g>
<g><path style="opacity:1" fill="#d84d4e" d="M 735.5,126.5 C 735.5,126.833 735.5,127.167 735.5,127.5C 727.644,127.326 719.811,127.659 712,128.5C 706.19,130.105 700.357,131.438 694.5,132.5C 698.5,130.833 702.5,129.167 706.5,127.5C 716.148,126.755 725.815,126.422 735.5,126.5 Z"/></g>
<g><path style="opacity:1" fill="#e34747" d="M 142.5,108.5 C 145.592,110.713 148.926,112.379 152.5,113.5C 153.733,115.796 155.733,117.13 158.5,117.5C 158.973,118.906 159.973,119.573 161.5,119.5C 161.973,120.906 162.973,121.573 164.5,121.5C 164.833,121.5 165.167,121.5 165.5,121.5C 165.5,122.5 165.5,123.5 165.5,124.5C 167.664,124.721 169.33,125.721 170.5,127.5C 168.481,128.566 166.481,129.732 164.5,131C 167.588,133.071 170.921,134.738 174.5,136C 173.663,137.011 173.33,138.178 173.5,139.5C 178.109,139.995 180.442,142.661 180.5,147.5C 177.538,147.117 176.538,148.117 177.5,150.5C 175.497,152.133 174.164,154.133 173.5,156.5C 174.833,156.5 176.167,156.5 177.5,156.5C 177.286,154.856 177.62,153.356 178.5,152C 180.489,151.481 181.489,152.314 181.5,154.5C 178.775,156.835 176.109,159.168 173.5,161.5C 169.126,162.208 165.46,164.208 162.5,167.5C 160.973,167.427 159.973,168.094 159.5,169.5C 158.486,170.674 157.153,171.34 155.5,171.5C 153.973,171.427 152.973,172.094 152.5,173.5C 149.828,173.948 147.828,175.281 146.5,177.5C 145.5,177.5 144.5,177.5 143.5,177.5C 142.498,175.989 141.831,174.322 141.5,172.5C 140.167,172.5 138.833,172.5 137.5,172.5C 138.167,171.5 138.833,170.5 139.5,169.5C 141.822,167.336 144.489,165.669 147.5,164.5C 155.329,161.609 161.996,157.275 167.5,151.5C 168.873,151.657 170.207,151.49 171.5,151C 172.989,149.532 174.323,148.032 175.5,146.5C 176.995,146.585 177.995,145.919 178.5,144.5C 177.717,142.712 176.384,141.712 174.5,141.5C 172.973,141.573 171.973,140.906 171.5,139.5C 166.828,132.939 160.495,128.606 152.5,126.5C 150.833,124.5 149.167,122.5 147.5,120.5C 145.028,119.358 144.028,117.358 144.5,114.5C 142.712,114.785 141.045,114.452 139.5,113.5C 136.793,111.664 136.126,109.331 137.5,106.5C 138.85,107.95 140.516,108.617 142.5,108.5 Z"/></g>
<g><path style="opacity:0.161" fill="#652c29" d="M 378.5,127.5 C 380.957,130.751 382.624,134.418 383.5,138.5C 381.043,135.249 379.376,131.582 378.5,127.5 Z"/></g>
<g><path style="opacity:1" fill="#e74546" d="M 735.5,127.5 C 739.22,128.857 742.887,130.524 746.5,132.5C 747.429,133.689 747.762,135.022 747.5,136.5C 749.619,136.468 750.952,137.468 751.5,139.5C 750.54,140.515 749.373,140.515 748,139.5C 746.414,141.044 744.58,142.211 742.5,143C 741.773,144.399 741.273,145.899 741,147.5C 740.184,146.177 739.017,145.511 737.5,145.5C 734.047,142.947 730.047,141.947 725.5,142.5C 722.5,142.667 719.5,142.833 716.5,143C 715.748,143.671 715.414,144.504 715.5,145.5C 712.505,145.294 709.838,145.96 707.5,147.5C 705.102,147.259 703.102,147.926 701.5,149.5C 697.02,151.055 692.354,152.055 687.5,152.5C 686.833,149.833 686.167,147.167 685.5,144.5C 684.425,142.144 684.425,139.811 685.5,137.5C 687.893,136.071 690.226,134.737 692.5,133.5C 692.842,132.662 693.508,132.328 694.5,132.5C 700.357,131.438 706.19,130.105 712,128.5C 719.811,127.659 727.644,127.326 735.5,127.5 Z"/></g>
<g><path style="opacity:1" fill="#9f4144" d="M 401.5,126.5 C 406.948,135.731 411.615,145.398 415.5,155.5C 414.5,155.5 413.5,155.5 412.5,155.5C 412.768,153.901 412.434,152.568 411.5,151.5C 409.432,148.779 408.099,145.779 407.5,142.5C 406.5,140.5 405.5,138.5 404.5,136.5C 403.5,133.833 402.5,131.167 401.5,128.5C 401.5,127.833 401.5,127.167 401.5,126.5 Z"/></g>
<g><path style="opacity:1" fill="#ab4041" d="M 152.5,126.5 C 160.495,128.606 166.828,132.939 171.5,139.5C 164.638,135.905 158.304,131.572 152.5,126.5 Z"/></g>
<g><path style="opacity:1" fill="#b64548" d="M 337.5,123.5 C 337.885,128.911 335.885,132.911 331.5,135.5C 332.992,131.182 334.992,127.182 337.5,123.5 Z"/></g>
<g><path style="opacity:0.541" fill="#8a413f" d="M 745.5,129.5 C 747.674,129.75 749.341,130.75 750.5,132.5C 748.326,132.25 746.659,131.25 745.5,129.5 Z"/></g>
<g><path style="opacity:0.145" fill="#4e1d1a" d="M 53.5,125.5 C 53.7572,130.624 53.7572,135.957 53.5,141.5C 52.2984,136.311 52.2984,130.977 53.5,125.5 Z"/></g>
<g><path style="opacity:1" fill="#e84546" d="M 651.5,128.5 C 653.167,128.5 654.833,128.5 656.5,128.5C 656.492,131.545 656.159,134.545 655.5,137.5C 653.34,139.801 651.174,142.134 649,144.5C 646.227,149.418 643.727,154.418 641.5,159.5C 640.761,159.369 640.094,159.536 639.5,160C 637.822,162.914 635.822,165.414 633.5,167.5C 633.822,165.278 633.155,163.444 631.5,162C 627.943,161.036 624.609,159.536 621.5,157.5C 621.427,155.973 622.094,154.973 623.5,154.5C 626.837,152.548 628.171,149.548 627.5,145.5C 613.185,146.558 598.852,146.725 584.5,146C 582.575,140.464 581.908,134.631 582.5,128.5C 605.5,128.5 628.5,128.5 651.5,128.5 Z"/></g>
<g><path style="opacity:0.612" fill="#853533" d="M 229.5,123.5 C 231.02,125.588 232.02,127.922 232.5,130.5C 232.832,135.161 233.165,139.828 233.5,144.5C 233.685,148.141 233.019,151.474 231.5,154.5C 231.846,144.083 231.179,133.75 229.5,123.5 Z"/></g>
<g><path style="opacity:1" fill="#e84546" d="M 540.5,128.5 C 540.833,128.5 541.167,128.5 541.5,128.5C 541.5,149.5 541.5,170.5 541.5,191.5C 542.5,191.5 543.5,191.5 544.5,191.5C 544.196,175.138 544.529,158.805 545.5,142.5C 544.963,141.259 544.296,140.092 543.5,139C 543.85,137.743 544.517,137.409 545.5,138C 546.43,139.194 547.097,140.527 547.5,142C 546.167,164.333 546.167,186.667 547.5,209C 546.618,211.262 545.618,213.429 544.5,215.5C 544.703,217.208 545.536,218.541 547,219.5C 548.896,216.762 550.229,213.762 551,210.5C 551.667,187.167 551.667,163.833 551,140.5C 550.229,137.238 548.896,134.238 547,131.5C 546.147,133.125 545.147,133.458 544,132.5C 543.805,131.181 543.972,129.847 544.5,128.5C 549.167,128.5 553.833,128.5 558.5,128.5C 558.5,159.833 558.5,191.167 558.5,222.5C 552.729,223.113 547.396,222.446 542.5,220.5C 541.939,219.092 541.605,217.592 541.5,216C 543.107,213.531 543.774,211.031 543.5,208.5C 542.599,206.312 541.265,204.479 539.5,203C 540.167,202.667 540.833,202.333 541.5,202C 539.655,200.872 537.655,200.372 535.5,200.5C 535.5,199.167 535.5,197.833 535.5,196.5C 537.696,196.435 539.696,195.768 541.5,194.5C 540.511,172.546 540.178,150.546 540.5,128.5 Z"/></g>
<g><path style="opacity:1" fill="#e64547" d="M 541.5,128.5 C 542.5,128.5 543.5,128.5 544.5,128.5C 543.972,129.847 543.805,131.181 544,132.5C 545.147,133.458 546.147,133.125 547,131.5C 548.896,134.238 550.229,137.238 551,140.5C 551.667,163.833 551.667,187.167 551,210.5C 550.229,213.762 548.896,216.762 547,219.5C 545.536,218.541 544.703,217.208 544.5,215.5C 545.618,213.429 546.618,211.262 547.5,209C 546.167,186.667 546.167,164.333 547.5,142C 547.097,140.527 546.43,139.194 545.5,138C 544.517,137.409 543.85,137.743 543.5,139C 544.296,140.092 544.963,141.259 545.5,142.5C 544.529,158.805 544.196,175.138 544.5,191.5C 543.5,191.5 542.5,191.5 541.5,191.5C 541.5,170.5 541.5,149.5 541.5,128.5 Z"/></g>
<g><path style="opacity:0.893" fill="#a54445" d="M 559.5,223.5 C 553.5,223.5 547.5,223.5 541.5,223.5C 541.443,222.391 541.11,221.391 540.5,220.5C 541.167,220.5 541.833,220.5 542.5,220.5C 547.396,222.446 552.729,223.113 558.5,222.5C 558.5,191.167 558.5,159.833 558.5,128.5C 553.833,128.5 549.167,128.5 544.5,128.5C 543.5,128.5 542.5,128.5 541.5,128.5C 541.167,128.5 540.833,128.5 540.5,128.5C 540.163,150.353 539.163,172.019 537.5,193.5C 538.489,171.575 538.822,149.575 538.5,127.5C 538.918,126.778 539.584,126.278 540.5,126C 546.167,125.333 551.833,125.333 557.5,126C 558.667,126.5 559.5,127.333 560,128.5C 560.825,160.238 560.658,191.905 559.5,223.5 Z"/></g>
<g><path style="opacity:0.988" fill="#964244" d="M 706.5,127.5 C 702.5,129.167 698.5,130.833 694.5,132.5C 693.508,132.328 692.842,132.662 692.5,133.5C 691.167,133.5 689.833,133.5 688.5,133.5C 694.085,130.527 700.085,128.527 706.5,127.5 Z"/></g>
<g><path style="opacity:1" fill="#993e3d" d="M 363.5,118.5 C 360.922,125.922 357.589,132.922 353.5,139.5C 353.927,135.095 355.26,131.095 357.5,127.5C 358.312,123.692 360.312,120.692 363.5,118.5 Z"/></g>
<g><path style="opacity:0.357" fill="#692c2a" d="M 59.5,133.5 C 59.395,137.319 58.5617,140.986 57,144.5C 54.3422,145.694 53.1756,144.694 53.5,141.5C 54.1515,142.091 54.8182,142.757 55.5,143.5C 56.8442,140.072 58.1775,136.739 59.5,133.5 Z"/></g>
<g><path style="opacity:0.565" fill="#7e3632" d="M 183.5,133.5 C 185.853,134.34 187.853,135.674 189.5,137.5C 186.733,137.13 184.733,135.796 183.5,133.5 Z"/></g>
<g><path style="opacity:1" fill="#e64547" d="M 472.5,128.5 C 472.67,129.822 472.337,130.989 471.5,132C 472.167,133 472.833,134 473.5,135C 472.833,137.333 472.167,139.667 471.5,142C 472.025,142.692 472.692,143.192 473.5,143.5C 474.666,160.824 474.833,178.157 474,195.5C 471.73,197.315 471.064,199.648 472,202.5C 472.667,203.833 473.333,203.833 474,202.5C 475.46,204.466 477.127,206.132 479,207.5C 480.695,205.768 482.028,203.768 483,201.5C 483.856,203.868 484.69,206.202 485.5,208.5C 483.217,208.608 481.217,209.441 479.5,211C 481.962,212.216 484.629,212.882 487.5,213C 486.635,214.359 485.635,215.526 484.5,216.5C 482.801,216.66 481.134,216.494 479.5,216C 478.529,214.519 477.196,213.685 475.5,213.5C 474.727,210.484 473.061,208.15 470.5,206.5C 470.167,204.5 469.833,202.5 469.5,200.5C 468.863,197.544 468.363,194.544 468,191.5C 467.831,175.328 467.331,159.328 466.5,143.5C 466.5,140.833 466.5,138.167 466.5,135.5C 466.5,133.167 466.5,130.833 466.5,128.5C 468.5,128.5 470.5,128.5 472.5,128.5 Z"/></g>
<g><path style="opacity:1" fill="#c6494d" d="M 688.5,133.5 C 689.833,133.5 691.167,133.5 692.5,133.5C 690.226,134.737 687.893,136.071 685.5,137.5C 684.425,139.811 684.425,142.144 685.5,144.5C 684.833,144.167 684.167,143.833 683.5,143.5C 683.279,140.721 683.612,138.054 684.5,135.5C 685.514,134.326 686.847,133.66 688.5,133.5 Z"/></g>
<g><path style="opacity:0.212" fill="#6e2a29" d="M 189.5,137.5 C 191.027,137.427 192.027,138.094 192.5,139.5C 190.973,139.573 189.973,138.906 189.5,137.5 Z"/></g>
<g><path style="opacity:0.937" fill="#87423e" d="M 684.5,135.5 C 683.612,138.054 683.279,140.721 683.5,143.5C 680.623,140.36 680.957,137.693 684.5,135.5 Z"/></g>
<g><path style="opacity:1" fill="#a04142" d="M 353.5,139.5 C 352.674,142.485 351.341,145.151 349.5,147.5C 349.838,145.146 350.338,142.813 351,140.5C 351.671,139.748 352.504,139.414 353.5,139.5 Z"/></g>
<g><path style="opacity:0.4" fill="#762a2e" d="M 241.5,123.5 C 242.972,129.601 243.639,135.935 243.5,142.5C 243.499,146.681 243.166,150.681 242.5,154.5C 242.601,144.148 242.267,133.815 241.5,123.5 Z"/></g>
<g><path style="opacity:0.957" fill="#973f3e" d="M 331.5,135.5 C 331.483,137.565 331.15,139.565 330.5,141.5C 329.778,142.551 328.778,143.218 327.5,143.5C 328.326,140.515 329.659,137.849 331.5,135.5 Z"/></g>
<g><path style="opacity:1" fill="#bd4746" d="M 737.5,145.5 C 738.167,146.5 738.833,147.5 739.5,148.5C 738.833,148.5 738.167,148.5 737.5,148.5C 736.599,146.273 734.933,145.273 732.5,145.5C 726.833,145.5 721.167,145.5 715.5,145.5C 715.414,144.504 715.748,143.671 716.5,143C 719.5,142.833 722.5,142.667 725.5,142.5C 730.047,141.947 734.047,142.947 737.5,145.5 Z"/></g>
<g><path style="opacity:1" fill="#d05353" d="M 466.5,143.5 C 467.331,159.328 467.831,175.328 468,191.5C 468.363,194.544 468.863,197.544 469.5,200.5C 468.833,200.167 468.167,199.833 467.5,199.5C 466.566,180.857 466.233,162.19 466.5,143.5 Z"/></g>
<g><path style="opacity:0.565" fill="#432624" d="M 61.5,145.5 C 60.5,145.5 59.5,145.5 58.5,145.5C 58.281,144.325 58.6143,143.325 59.5,142.5C 59.0875,143.782 59.7542,144.782 61.5,145.5 Z"/></g>
<g><path style="opacity:0.395" fill="#762a28" d="M 134.5,120.5 C 135.332,137.328 135.832,154.328 136,171.5C 136.816,170.177 137.983,169.511 139.5,169.5C 138.833,170.5 138.167,171.5 137.5,172.5C 136.5,172.5 135.5,172.5 134.5,172.5C 134.5,155.167 134.5,137.833 134.5,120.5 Z"/></g>
<g><path style="opacity:0.31" fill="#772f2b" d="M 174.5,141.5 C 176.384,141.712 177.717,142.712 178.5,144.5C 177.995,145.919 176.995,146.585 175.5,146.5C 176.734,144.602 176.401,142.935 174.5,141.5 Z"/></g>
<g><path style="opacity:1" fill="#e64647" d="M 170.5,127.5 C 174.581,129.869 178.915,131.869 183.5,133.5C 184.733,135.796 186.733,137.13 189.5,137.5C 189.973,138.906 190.973,139.573 192.5,139.5C 193.379,141.228 194.046,143.061 194.5,145C 192.856,147.789 190.856,150.289 188.5,152.5C 187.391,152.557 186.391,152.89 185.5,153.5C 185.265,152.903 184.765,152.57 184,152.5C 182.989,153.056 182.156,153.722 181.5,154.5C 181.489,152.314 180.489,151.481 178.5,152C 177.62,153.356 177.286,154.856 177.5,156.5C 176.167,156.5 174.833,156.5 173.5,156.5C 174.164,154.133 175.497,152.133 177.5,150.5C 176.538,148.117 177.538,147.117 180.5,147.5C 180.442,142.661 178.109,139.995 173.5,139.5C 173.33,138.178 173.663,137.011 174.5,136C 170.921,134.738 167.588,133.071 164.5,131C 166.481,129.732 168.481,128.566 170.5,127.5 Z"/></g>
<g><path style="opacity:0.451" fill="#803937" d="M 683.5,143.5 C 684.167,143.833 684.833,144.167 685.5,144.5C 686.167,147.167 686.833,149.833 687.5,152.5C 685.408,149.912 684.075,146.912 683.5,143.5 Z"/></g>
<g><path style="opacity:0.427" fill="#723b3b" d="M 732.5,145.5 C 734.933,145.273 736.599,146.273 737.5,148.5C 735.566,147.89 733.899,146.89 732.5,145.5 Z"/></g>
<g><path style="opacity:1" fill="#d94d50" d="M 581.5,127.5 C 605.006,127.169 628.339,127.502 651.5,128.5C 628.5,128.5 605.5,128.5 582.5,128.5C 581.908,134.631 582.575,140.464 584.5,146C 598.852,146.725 613.185,146.558 627.5,145.5C 628.171,149.548 626.837,152.548 623.5,154.5C 623.5,153.167 623.5,151.833 623.5,150.5C 623.5,150.167 623.5,149.833 623.5,149.5C 610.203,147.681 596.537,146.848 582.5,147C 581.522,140.59 581.189,134.09 581.5,127.5 Z"/></g>
<g><path style="opacity:0.204" fill="#6d3837" d="M 715.5,145.5 C 713.095,146.768 710.428,147.435 707.5,147.5C 709.838,145.96 712.505,145.294 715.5,145.5 Z"/></g>
<g><path style="opacity:0.2" fill="#823635" d="M 383.5,138.5 C 385.173,139.343 386.34,140.676 387,142.5C 389.211,148.238 391.378,153.904 393.5,159.5C 389.385,152.933 386.051,145.933 383.5,138.5 Z"/></g>
<g><path style="opacity:0.598" fill="#7b3d3c" d="M 581.5,127.5 C 581.189,134.09 581.522,140.59 582.5,147C 596.537,146.848 610.203,147.681 623.5,149.5C 609.402,149.965 595.402,149.465 581.5,148C 580.173,141.068 580.173,134.235 581.5,127.5 Z"/></g>
<g><path style="opacity:0.808" fill="#914041" d="M 655.5,137.5 C 651.33,145.18 646.663,152.513 641.5,159.5C 643.727,154.418 646.227,149.418 649,144.5C 651.174,142.134 653.34,139.801 655.5,137.5 Z"/></g>
<g><path style="opacity:0.376" fill="#70383c" d="M 707.5,147.5 C 705.786,148.738 703.786,149.405 701.5,149.5C 703.102,147.926 705.102,147.259 707.5,147.5 Z"/></g>
<g><path style="opacity:0.792" fill="#863939" d="M 58.5,145.5 C 59.5,145.5 60.5,145.5 61.5,145.5C 62.5375,146.93 63.2041,148.597 63.5,150.5C 62.3406,149.544 61.1739,148.544 60,147.5C 58.9701,147.836 58.4701,148.503 58.5,149.5C 57.5111,154.975 57.1778,160.642 57.5,166.5C 56.8353,163.686 56.502,160.686 56.5,157.5C 56.2783,153.203 56.945,149.203 58.5,145.5 Z"/></g>
<g><path style="opacity:0.871" fill="#8f3939" d="M 192.5,139.5 C 193.75,139.577 194.583,140.244 195,141.5C 196.79,147.537 194.623,151.204 188.5,152.5C 190.856,150.289 192.856,147.789 194.5,145C 194.046,143.061 193.379,141.228 192.5,139.5 Z"/></g>
<g><path style="opacity:1" fill="#a73c3b" d="M 175.5,146.5 C 174.323,148.032 172.989,149.532 171.5,151C 170.207,151.49 168.873,151.657 167.5,151.5C 169.629,149.05 172.296,147.383 175.5,146.5 Z"/></g>
<g><path style="opacity:0.988" fill="#8f3b3c" d="M 327.5,143.5 C 326.812,148.538 324.812,152.871 321.5,156.5C 323.122,151.954 325.122,147.621 327.5,143.5 Z"/></g>
<g><path style="opacity:1" fill="#e94445" d="M 404.5,136.5 C 405.5,138.5 406.5,140.5 407.5,142.5C 406.343,146.221 404.843,149.887 403,153.5C 402.667,152.5 402.333,151.5 402,150.5C 401.025,157.055 401.525,163.388 403.5,169.5C 402.5,169.5 401.5,169.5 400.5,169.5C 400.236,166.234 399.236,163.234 397.5,160.5C 399.184,159.146 399.684,157.479 399,155.5C 394.78,159.808 393.613,159.141 395.5,153.5C 394.325,153.719 393.325,153.386 392.5,152.5C 394.717,149.664 396.384,146.664 397.5,143.5C 396.448,143.649 395.448,143.483 394.5,143C 391.572,139.589 390.738,135.756 392,131.5C 390.887,130.289 389.72,130.289 388.5,131.5C 387.004,128.825 387.671,126.825 390.5,125.5C 390.062,124.494 389.396,124.494 388.5,125.5C 387.813,123.726 386.98,122.059 386,120.5C 385.249,116.595 385.749,112.929 387.5,109.5C 389.59,109.45 390.923,110.45 391.5,112.5C 388.907,114.071 387.907,116.404 388.5,119.5C 390.288,119.215 391.955,119.548 393.5,120.5C 394.65,122.609 395.984,124.609 397.5,126.5C 396.362,129.913 395.029,133.246 393.5,136.5C 394.077,138.55 395.41,139.55 397.5,139.5C 397.338,137.473 397.505,135.473 398,133.5C 398.414,133.043 398.914,132.709 399.5,132.5C 401.185,133.953 402.851,135.286 404.5,136.5 Z"/></g>
<g><path style="opacity:0.808" fill="#813131" d="M 123.5,126.5 C 123.833,126.5 124.167,126.5 124.5,126.5C 124.5,132.167 124.5,137.833 124.5,143.5C 124.5,148.833 124.5,154.167 124.5,159.5C 124.22,168.886 124.553,178.22 125.5,187.5C 124.883,187.389 124.383,187.056 124,186.5C 122.237,166.51 122.07,146.51 123.5,126.5 Z"/></g>
<g><path style="opacity:1" fill="#b84244" d="M 185.5,153.5 C 185.5,153.833 185.5,154.167 185.5,154.5C 185.158,155.338 184.492,155.672 183.5,155.5C 181.973,155.427 180.973,156.094 180.5,157.5C 178.664,159.588 176.331,160.921 173.5,161.5C 176.109,159.168 178.775,156.835 181.5,154.5C 182.156,153.722 182.989,153.056 184,152.5C 184.765,152.57 185.265,152.903 185.5,153.5 Z"/></g>
<g><path style="opacity:0.686" fill="#833f3a" d="M 701.5,149.5 C 698.043,151.391 694.376,153.058 690.5,154.5C 689.261,154.058 688.261,153.391 687.5,152.5C 692.354,152.055 697.02,151.055 701.5,149.5 Z"/></g>
<g><path style="opacity:0.529" fill="#873c3c" d="M 737.5,148.5 C 738.167,148.5 738.833,148.5 739.5,148.5C 741.581,152.12 741.915,155.786 740.5,159.5C 741.056,155.334 740.056,151.668 737.5,148.5 Z"/></g>
<g><path style="opacity:0.024" fill="#682a29" d="M 188.5,152.5 C 188.027,153.906 187.027,154.573 185.5,154.5C 185.5,154.167 185.5,153.833 185.5,153.5C 186.391,152.89 187.391,152.557 188.5,152.5 Z"/></g>
<g><path style="opacity:1" fill="#a54146" d="M 623.5,150.5 C 623.5,151.833 623.5,153.167 623.5,154.5C 622.094,154.973 621.427,155.973 621.5,157.5C 620.167,158.167 618.833,158.833 617.5,159.5C 618.759,155.975 620.759,152.975 623.5,150.5 Z"/></g>
<g><path style="opacity:0.784" fill="#a44141" d="M 465.5,127.5 C 471.833,127.5 478.167,127.5 484.5,127.5C 486.61,128.453 487.777,130.119 488,132.5C 488.5,152.164 488.667,171.831 488.5,191.5C 488.077,193.781 488.744,195.448 490.5,196.5C 490.5,197.167 490.5,197.833 490.5,198.5C 488.983,198.489 487.816,197.823 487,196.5C 486.667,175.167 486.333,153.833 486,132.5C 485.044,131.421 484.211,130.255 483.5,129C 479.848,128.501 476.182,128.335 472.5,128.5C 470.5,128.5 468.5,128.5 466.5,128.5C 466.5,130.833 466.5,133.167 466.5,135.5C 465.527,133.052 465.194,130.385 465.5,127.5 Z"/></g>
<g><path style="opacity:1" fill="#e74546" d="M 751.5,139.5 C 753.39,139.297 754.89,139.963 756,141.5C 756.809,145.396 758.143,149.063 760,152.5C 760.333,168.167 760.667,183.833 761,199.5C 761.183,202.365 761.683,205.031 762.5,207.5C 762.5,212.5 762.5,217.5 762.5,222.5C 757.786,222.827 753.12,222.493 748.5,221.5C 747.304,219.855 746.304,218.189 745.5,216.5C 745.116,214.707 743.95,213.707 742,213.5C 739.348,214.985 737.182,216.985 735.5,219.5C 733.847,219.66 732.514,220.326 731.5,221.5C 729.214,221.595 727.214,222.262 725.5,223.5C 718.185,224.415 710.852,224.582 703.5,224C 698.734,223.11 694.067,221.943 689.5,220.5C 689.167,219.833 688.833,219.167 688.5,218.5C 692.664,218.874 696.664,218.874 700.5,218.5C 700.371,216.784 700.038,215.117 699.5,213.5C 699.178,210.468 700.511,208.801 703.5,208.5C 709.295,210.134 715.295,210.968 721.5,211C 724.488,213.144 727.488,213.477 730.5,212C 728.51,210.249 726.177,209.249 723.5,209C 725.382,208.802 727.048,208.302 728.5,207.5C 729.263,206.732 730.263,206.232 731.5,206C 732.252,205.329 732.586,204.496 732.5,203.5C 736.36,203.946 739.36,202.613 741.5,199.5C 742.483,192.645 742.983,185.645 743,178.5C 742.184,177.177 741.017,176.511 739.5,176.5C 739.414,175.504 739.748,174.671 740.5,174C 736.702,172.331 732.702,171.164 728.5,170.5C 731.106,169.348 733.773,169.182 736.5,170C 739.51,172.169 742.844,172.836 746.5,172C 747.337,170.989 747.67,169.822 747.5,168.5C 749.167,168.5 750.833,168.5 752.5,168.5C 752.662,166.473 752.495,164.473 752,162.5C 745.763,161.937 739.263,161.937 732.5,162.5C 734.631,161.686 736.964,161.186 739.5,161C 740.056,160.617 740.389,160.117 740.5,159.5C 741.915,155.786 741.581,152.12 739.5,148.5C 738.833,147.5 738.167,146.5 737.5,145.5C 739.017,145.511 740.184,146.177 741,147.5C 741.273,145.899 741.773,144.399 742.5,143C 744.58,142.211 746.414,141.044 748,139.5C 749.373,140.515 750.54,140.515 751.5,139.5 Z"/></g>
<g><path style="opacity:0.031" fill="#5a2727" d="M 183.5,155.5 C 183.027,156.906 182.027,157.573 180.5,157.5C 180.973,156.094 181.973,155.427 183.5,155.5 Z"/></g>
<g><path style="opacity:1" fill="#c84c4d" d="M 58.5,149.5 C 58.2558,158.266 58.9225,166.933 60.5,175.5C 60.1667,175.5 59.8333,175.5 59.5,175.5C 59.5,175.167 59.5,174.833 59.5,174.5C 59.8294,171.772 59.1628,169.438 57.5,167.5C 57.5,167.167 57.5,166.833 57.5,166.5C 57.1778,160.642 57.5111,154.975 58.5,149.5 Z"/></g>
<g><path style="opacity:1" fill="#e84546" d="M 472.5,128.5 C 476.182,128.335 479.848,128.501 483.5,129C 484.211,130.255 485.044,131.421 486,132.5C 486.333,153.833 486.667,175.167 487,196.5C 487.816,197.823 488.983,198.489 490.5,198.5C 490.5,199.5 490.5,200.5 490.5,201.5C 485.863,201.608 485.53,202.608 489.5,204.5C 490.386,205.325 490.719,206.325 490.5,207.5C 489.325,207.281 488.325,207.614 487.5,208.5C 492.284,211.735 494.284,210.402 493.5,204.5C 495.346,204.222 496.68,204.889 497.5,206.5C 497.245,208.949 495.911,211.115 493.5,213C 494.308,213.308 494.975,213.808 495.5,214.5C 493.269,214.887 490.936,215.053 488.5,215C 489.448,215.483 490.448,215.649 491.5,215.5C 491.833,218.5 490.5,219.833 487.5,219.5C 485.5,219.5 484.5,218.5 484.5,216.5C 485.635,215.526 486.635,214.359 487.5,213C 484.629,212.882 481.962,212.216 479.5,211C 481.217,209.441 483.217,208.608 485.5,208.5C 484.69,206.202 483.856,203.868 483,201.5C 482.028,203.768 480.695,205.768 479,207.5C 477.127,206.132 475.46,204.466 474,202.5C 473.333,203.833 472.667,203.833 472,202.5C 471.064,199.648 471.73,197.315 474,195.5C 474.833,178.157 474.666,160.824 473.5,143.5C 472.692,143.192 472.025,142.692 471.5,142C 472.167,139.667 472.833,137.333 473.5,135C 472.833,134 472.167,133 471.5,132C 472.337,130.989 472.67,129.822 472.5,128.5 Z"/></g>
<g><path style="opacity:0.777" fill="#843d3c" d="M 759.5,144.5 C 761.531,147.422 762.698,150.755 763,154.5C 762.167,172.166 762.334,189.833 763.5,207.5C 763.167,207.5 762.833,207.5 762.5,207.5C 761.792,188.511 761.292,169.511 761,150.5C 759.872,148.655 759.372,146.655 759.5,144.5 Z"/></g>
<g><path style="opacity:1" fill="#a43e3e" d="M 167.5,151.5 C 161.996,157.275 155.329,161.609 147.5,164.5C 153.476,159.174 160.143,154.841 167.5,151.5 Z"/></g>
<g><path style="opacity:0.569" fill="#91393c" d="M 349.5,147.5 C 347.622,153.587 344.955,159.254 341.5,164.5C 341.629,162.784 341.962,161.117 342.5,159.5C 344.86,155.437 347.193,151.437 349.5,147.5 Z"/></g>
<g><path style="opacity:1" fill="#e64546" d="M 342.5,159.5 C 341.962,161.117 341.629,162.784 341.5,164.5C 339.953,165.768 338.953,167.435 338.5,169.5C 336.983,169.511 335.816,170.177 335,171.5C 334.503,173.81 334.337,176.143 334.5,178.5C 336.167,178.5 337.833,178.5 339.5,178.5C 339.5,179.5 339.5,180.5 339.5,181.5C 338.178,181.67 337.011,181.337 336,180.5C 335.506,182.134 335.34,183.801 335.5,185.5C 358.726,184.927 381.892,185.594 405,187.5C 406.5,187.167 408,186.833 409.5,186.5C 410.978,183.368 411.978,180.035 412.5,176.5C 413.672,176.081 414.672,175.415 415.5,174.5C 413.126,171.972 412.126,168.972 412.5,165.5C 411.5,165.5 410.5,165.5 409.5,165.5C 409.358,160.626 410.024,155.959 411.5,151.5C 412.434,152.568 412.768,153.901 412.5,155.5C 413.5,155.5 414.5,155.5 415.5,155.5C 415.833,158.167 416.167,160.833 416.5,163.5C 417.5,163.5 418.5,163.5 419.5,163.5C 419.833,166.167 420.167,168.833 420.5,171.5C 421.5,171.5 422.5,171.5 423.5,171.5C 424.773,173.713 425.773,176.046 426.5,178.5C 426.5,179.833 426.5,181.167 426.5,182.5C 425.167,182.5 423.833,182.5 422.5,182.5C 423.276,188.262 421.442,189.595 417,186.5C 416,186.833 415,187.167 414,187.5C 413.13,190.615 412.964,193.615 413.5,196.5C 412.833,196.5 412.167,196.5 411.5,196.5C 382.671,195.502 353.671,195.169 324.5,195.5C 324.425,198.206 324.092,200.873 323.5,203.5C 321.896,204.287 321.229,205.62 321.5,207.5C 320.5,207.5 319.5,207.5 318.5,207.5C 318.492,210.545 318.159,213.545 317.5,216.5C 316.1,217.1 315.1,218.1 314.5,219.5C 312.952,219.821 312.285,220.821 312.5,222.5C 305.833,222.5 299.167,222.5 292.5,222.5C 292.517,220.435 292.85,218.435 293.5,216.5C 297.989,208.523 301.656,200.189 304.5,191.5C 307.449,188.59 309.116,184.923 309.5,180.5C 310.822,180.67 311.989,180.337 313,179.5C 314.357,175.935 315.19,172.268 315.5,168.5C 319.454,165.648 321.454,161.648 321.5,156.5C 324.812,152.871 326.812,148.538 327.5,143.5C 328.778,143.218 329.778,142.551 330.5,141.5C 331.496,141.586 332.329,141.252 333,140.5C 333.167,141 333.333,141.5 333.5,142C 332.612,143.22 331.945,144.553 331.5,146C 332.637,150.729 334.304,155.229 336.5,159.5C 337.308,157.577 337.808,155.577 338,153.5C 340.305,155.022 341.805,157.022 342.5,159.5 Z"/></g>
<g><path style="opacity:1" fill="#98393a" d="M 393.5,159.5 C 396.383,161.253 397.883,163.92 398,167.5C 398.708,168.381 399.542,169.047 400.5,169.5C 400.5,170.167 400.5,170.833 400.5,171.5C 400.768,173.099 400.434,174.432 399.5,175.5C 397.507,170.177 395.507,164.844 393.5,159.5 Z"/></g>
<g><path style="opacity:0.338" fill="#7e3031" d="M 465.5,127.5 C 465.194,130.385 465.527,133.052 466.5,135.5C 466.5,138.167 466.5,140.833 466.5,143.5C 466.233,162.19 466.566,180.857 467.5,199.5C 466.71,198.391 466.21,197.058 466,195.5C 465.762,174.824 465.262,154.157 464.5,133.5C 464.505,131.304 464.838,129.304 465.5,127.5 Z"/></g>
<g><path style="opacity:1" fill="#aa4544" d="M 415.5,155.5 C 417.341,157.849 418.674,160.515 419.5,163.5C 418.5,163.5 417.5,163.5 416.5,163.5C 416.167,160.833 415.833,158.167 415.5,155.5 Z"/></g>
<g><path style="opacity:1" fill="#a94545" d="M 740.5,159.5 C 740.389,160.117 740.056,160.617 739.5,161C 736.964,161.186 734.631,161.686 732.5,162.5C 727.228,163.311 722.228,164.644 717.5,166.5C 714.833,166.5 712.167,166.5 709.5,166.5C 719.476,163.092 729.809,160.759 740.5,159.5 Z"/></g>
<g><path style="opacity:1" fill="#e34646" d="M 132.5,111.5 C 132.833,111.5 133.167,111.5 133.5,111.5C 134.403,114.391 134.736,117.391 134.5,120.5C 134.5,137.833 134.5,155.167 134.5,172.5C 135.5,172.5 136.5,172.5 137.5,172.5C 138.833,172.5 140.167,172.5 141.5,172.5C 141.831,174.322 142.498,175.989 143.5,177.5C 143.443,178.609 143.11,179.609 142.5,180.5C 139.962,181.043 137.628,182.043 135.5,183.5C 132.564,184.406 129.564,185.072 126.5,185.5C 126.123,176.662 125.457,167.995 124.5,159.5C 124.5,154.167 124.5,148.833 124.5,143.5C 126.098,133.383 126.931,123.05 127,112.5C 127.196,110.714 128.029,109.381 129.5,108.5C 130.141,109.993 131.141,110.993 132.5,111.5 Z"/></g>
<g><path style="opacity:0.549" fill="#944140" d="M 641.5,159.5 C 639.316,163.881 636.65,167.881 633.5,171.5C 633.5,170.167 633.5,168.833 633.5,167.5C 635.822,165.414 637.822,162.914 639.5,160C 640.094,159.536 640.761,159.369 641.5,159.5 Z"/></g>
<g><path style="opacity:0.408" fill="#863432" d="M 173.5,161.5 C 170.322,164.258 166.655,166.258 162.5,167.5C 165.46,164.208 169.126,162.208 173.5,161.5 Z"/></g>
<g><path style="opacity:0.898" fill="#87363a" d="M 231.5,157.5 C 231.664,160.187 231.497,162.854 231,165.5C 230.722,166.416 230.222,167.082 229.5,167.5C 229.753,163.96 230.419,160.627 231.5,157.5 Z"/></g>
<g><path style="opacity:1" fill="#e74546" d="M 621.5,157.5 C 624.609,159.536 627.943,161.036 631.5,162C 633.155,163.444 633.822,165.278 633.5,167.5C 633.5,168.833 633.5,170.167 633.5,171.5C 632.094,171.973 631.427,172.973 631.5,174.5C 630.357,174.908 629.357,175.575 628.5,176.5C 627.001,180.826 624.501,184.493 621,187.5C 620.51,188.793 620.343,190.127 620.5,191.5C 618.605,192.973 616.939,194.64 615.5,196.5C 610.62,194.343 606.953,195.509 604.5,200C 605.11,201.947 605.943,203.781 607,205.5C 607.739,204.426 608.739,203.759 610,203.5C 611.5,204.5 613,205.5 614.5,206.5C 610.284,208.641 605.95,208.974 601.5,207.5C 601.833,205.5 602.167,203.5 602.5,201.5C 601.022,201.762 599.689,201.429 598.5,200.5C 599.441,198.228 600.774,196.228 602.5,194.5C 601.349,193.269 600.183,193.269 599,194.5C 598.536,193.906 598.369,193.239 598.5,192.5C 599.687,191.466 600.52,190.133 601,188.5C 601.893,189.711 602.726,189.711 603.5,188.5C 602.754,187.264 602.421,185.93 602.5,184.5C 604.267,182.062 605.601,179.395 606.5,176.5C 606.427,174.973 607.094,173.973 608.5,173.5C 610.822,172.198 612.155,170.198 612.5,167.5C 615.833,165.841 617.5,163.175 617.5,159.5C 618.833,158.833 620.167,158.167 621.5,157.5 Z"/></g>
<g><path style="opacity:1" fill="#b74244" d="M 63.5,151.5 C 65.6586,159.113 67.9919,166.78 70.5,174.5C 70.5,175.833 70.5,177.167 70.5,178.5C 65.5434,170.347 63.2101,161.347 63.5,151.5 Z"/></g>
<g><path style="opacity:0.675" fill="#7f3737" d="M 242.5,155.5 C 242.375,160.794 241.375,165.794 239.5,170.5C 239.124,165.106 240.124,160.106 242.5,155.5 Z"/></g>
<g><path style="opacity:1" fill="#a84143" d="M 321.5,156.5 C 321.454,161.648 319.454,165.648 315.5,168.5C 316.992,164.182 318.992,160.182 321.5,156.5 Z"/></g>
<g><path style="opacity:0.796" fill="#9c4445" d="M 617.5,159.5 C 617.5,163.175 615.833,165.841 612.5,167.5C 613.669,164.489 615.336,161.822 617.5,159.5 Z"/></g>
<g><path style="opacity:0.02" fill="#6e2d2d" d="M 162.5,167.5 C 162.027,168.906 161.027,169.573 159.5,169.5C 159.973,168.094 160.973,167.427 162.5,167.5 Z"/></g>
<g><path style="opacity:1" fill="#e84545" d="M 739.5,176.5 C 736.102,176.18 732.768,176.513 729.5,177.5C 728.23,178.288 727.23,179.288 726.5,180.5C 725.833,180.5 725.167,180.5 724.5,180.5C 721.482,180.665 718.482,180.498 715.5,180C 718.966,177.764 722.633,175.764 726.5,174C 721.5,173.667 716.5,173.333 711.5,173C 710.672,172.085 709.672,171.419 708.5,171C 713.992,169.714 719.659,169.047 725.5,169C 726.634,167.984 726.301,167.317 724.5,167C 722.19,166.503 719.857,166.337 717.5,166.5C 722.228,164.644 727.228,163.311 732.5,162.5C 739.263,161.937 745.763,161.937 752,162.5C 752.495,164.473 752.662,166.473 752.5,168.5C 750.833,168.5 749.167,168.5 747.5,168.5C 747.67,169.822 747.337,170.989 746.5,172C 742.844,172.836 739.51,172.169 736.5,170C 733.773,169.182 731.106,169.348 728.5,170.5C 732.702,171.164 736.702,172.331 740.5,174C 739.748,174.671 739.414,175.504 739.5,176.5 Z"/></g>
<g><path style="opacity:0.29" fill="#833235" d="M 538.5,127.5 C 538.822,149.575 538.489,171.575 537.5,193.5C 534.333,196.498 531,199.331 527.5,202C 525.655,203.128 523.655,203.628 521.5,203.5C 527.41,200.609 532.577,196.609 537,191.5C 537.168,169.996 537.668,148.663 538.5,127.5 Z"/></g>
<g><path style="opacity:0.671" fill="#743030" d="M 57.5,167.5 C 59.1628,169.438 59.8294,171.772 59.5,174.5C 58.3882,172.401 57.7215,170.067 57.5,167.5 Z"/></g>
<g><path style="opacity:1" fill="#a34241" d="M 419.5,163.5 C 421.341,165.849 422.674,168.515 423.5,171.5C 422.5,171.5 421.5,171.5 420.5,171.5C 420.167,168.833 419.833,166.167 419.5,163.5 Z"/></g>
<g><path style="opacity:0.086" fill="#6b2e2b" d="M 155.5,171.5 C 155.027,172.906 154.027,173.573 152.5,173.5C 152.973,172.094 153.973,171.427 155.5,171.5 Z"/></g>
<g><path style="opacity:0.467" fill="#883c3d" d="M 612.5,167.5 C 612.155,170.198 610.822,172.198 608.5,173.5C 609.34,171.147 610.674,169.147 612.5,167.5 Z"/></g>
<g><path style="opacity:0.055" fill="#722f3a" d="M 633.5,171.5 C 633.573,173.027 632.906,174.027 631.5,174.5C 631.427,172.973 632.094,171.973 633.5,171.5 Z"/></g>
<g><path style="opacity:1" fill="#aa4747" d="M 709.5,166.5 C 703.873,168.484 698.54,171.317 693.5,175C 692.207,175.49 690.873,175.657 689.5,175.5C 695.114,170.363 701.78,167.363 709.5,166.5 Z"/></g>
<g><path style="opacity:0.769" fill="#873936" d="M 152.5,173.5 C 151.198,175.822 149.198,177.155 146.5,177.5C 147.828,175.281 149.828,173.948 152.5,173.5 Z"/></g>
<g><path style="opacity:0.516" fill="#883331" d="M 341.5,164.5 C 340.74,168.027 339.406,171.36 337.5,174.5C 337.833,174.833 338.167,175.167 338.5,175.5C 358.804,175.489 379.137,175.489 399.5,175.5C 378.673,176.497 357.673,176.831 336.5,176.5C 336.394,173.921 337.061,171.588 338.5,169.5C 338.953,167.435 339.953,165.768 341.5,164.5 Z"/></g>
<g><path style="opacity:1" fill="#e84445" d="M 407.5,142.5 C 408.099,145.779 409.432,148.779 411.5,151.5C 410.024,155.959 409.358,160.626 409.5,165.5C 410.5,165.5 411.5,165.5 412.5,165.5C 412.126,168.972 413.126,171.972 415.5,174.5C 414.672,175.415 413.672,176.081 412.5,176.5C 411.978,180.035 410.978,183.368 409.5,186.5C 408,186.833 406.5,187.167 405,187.5C 381.892,185.594 358.726,184.927 335.5,185.5C 335.34,183.801 335.506,182.134 336,180.5C 337.011,181.337 338.178,181.67 339.5,181.5C 339.5,180.5 339.5,179.5 339.5,178.5C 360.286,178.462 380.953,178.462 401.5,178.5C 402.881,178 403.547,177 403.5,175.5C 403.439,173.347 402.439,172.014 400.5,171.5C 400.5,170.833 400.5,170.167 400.5,169.5C 401.5,169.5 402.5,169.5 403.5,169.5C 401.525,163.388 401.025,157.055 402,150.5C 402.333,151.5 402.667,152.5 403,153.5C 404.843,149.887 406.343,146.221 407.5,142.5 Z"/></g>
<g><path style="opacity:1" fill="#cf4a4b" d="M 739.5,176.5 C 741.017,176.511 742.184,177.177 743,178.5C 742.983,185.645 742.483,192.645 741.5,199.5C 741.5,192.5 741.5,185.5 741.5,178.5C 739.265,178.205 737.265,178.539 735.5,179.5C 733.958,180.301 732.292,180.634 730.5,180.5C 729.167,180.5 727.833,180.5 726.5,180.5C 727.23,179.288 728.23,178.288 729.5,177.5C 732.768,176.513 736.102,176.18 739.5,176.5 Z"/></g>
<g><path style="opacity:0.757" fill="#8d3331" d="M 143.5,177.5 C 144.5,177.5 145.5,177.5 146.5,177.5C 145.738,179.262 144.404,180.262 142.5,180.5C 143.11,179.609 143.443,178.609 143.5,177.5 Z"/></g>
<g><path style="opacity:1" fill="#a3403f" d="M 239.5,170.5 C 237.373,180.414 233.373,189.414 227.5,197.5C 227.822,195.278 227.155,193.444 225.5,192C 227.075,192.379 228.575,192.212 230,191.5C 230.495,189.527 230.662,187.527 230.5,185.5C 231.675,185.719 232.675,185.386 233.5,184.5C 234.347,179.856 235.681,175.522 237.5,171.5C 238.167,171.167 238.833,170.833 239.5,170.5 Z"/></g>
<g><path style="opacity:1" fill="#dc494c" d="M 338.5,169.5 C 337.061,171.588 336.394,173.921 336.5,176.5C 357.673,176.831 378.673,176.497 399.5,175.5C 400.434,174.432 400.768,173.099 400.5,171.5C 402.439,172.014 403.439,173.347 403.5,175.5C 403.547,177 402.881,178 401.5,178.5C 380.953,178.462 360.286,178.462 339.5,178.5C 337.833,178.5 336.167,178.5 334.5,178.5C 334.337,176.143 334.503,173.81 335,171.5C 335.816,170.177 336.983,169.511 338.5,169.5 Z"/></g>
<g><path style="opacity:1" fill="#a14042" d="M 229.5,167.5 C 228.685,178.754 224.019,188.088 215.5,195.5C 217.749,191.402 220.249,187.402 223,183.5C 225.294,178.096 227.46,172.762 229.5,167.5 Z"/></g>
<g><path style="opacity:0.392" fill="#803937" d="M 606.5,176.5 C 605.601,179.395 604.267,182.062 602.5,184.5C 600.833,186.5 599.167,188.5 597.5,190.5C 599.719,185.291 602.719,180.624 606.5,176.5 Z"/></g>
<g><path style="opacity:1" fill="#b04346" d="M 315.5,168.5 C 315.19,172.268 314.357,175.935 313,179.5C 311.989,180.337 310.822,180.67 309.5,180.5C 310.992,176.182 312.992,172.182 315.5,168.5 Z"/></g>
<g><path style="opacity:0.22" fill="#702d2a" d="M 59.5,175.5 C 59.8333,175.5 60.1667,175.5 60.5,175.5C 61.7345,178.33 62.7345,181.33 63.5,184.5C 61.4082,181.912 60.0749,178.912 59.5,175.5 Z"/></g>
<g><path style="opacity:0.973" fill="#96393a" d="M 70.5,174.5 C 72.8139,179.128 75.1473,183.795 77.5,188.5C 74.2027,185.928 71.8694,182.595 70.5,178.5C 70.5,177.167 70.5,175.833 70.5,174.5 Z"/></g>
<g><path style="opacity:1" fill="#da4d4e" d="M 124.5,159.5 C 125.457,167.995 126.123,176.662 126.5,185.5C 129.564,185.072 132.564,184.406 135.5,183.5C 133.109,186.917 129.775,188.25 125.5,187.5C 124.553,178.22 124.22,168.886 124.5,159.5 Z"/></g>
<g><path style="opacity:0.859" fill="#9c4243" d="M 689.5,175.5 C 689.167,176.167 688.833,176.833 688.5,177.5C 686.167,179.5 683.833,181.5 681.5,183.5C 683.167,179.833 685.833,177.167 689.5,175.5 Z"/></g>
<g><path style="opacity:1" fill="#953d3e" d="M 426.5,178.5 C 429.341,182.849 431.674,187.516 433.5,192.5C 430.674,189.516 428.341,186.183 426.5,182.5C 426.5,181.167 426.5,179.833 426.5,178.5 Z"/></g>
<g><path style="opacity:0.161" fill="#7c3438" d="M 724.5,180.5 C 725.167,180.5 725.833,180.5 726.5,180.5C 727.833,180.5 729.167,180.5 730.5,180.5C 727.063,181.945 723.397,182.945 719.5,183.5C 720.913,182.065 722.58,181.065 724.5,180.5 Z"/></g>
<g><path style="opacity:0.149" fill="#8b3a37" d="M 631.5,174.5 C 628.578,180.686 624.911,186.352 620.5,191.5C 620.343,190.127 620.51,188.793 621,187.5C 624.501,184.493 627.001,180.826 628.5,176.5C 629.357,175.575 630.357,174.908 631.5,174.5 Z"/></g>
<g><path style="opacity:0.443" fill="#85373b" d="M 718.5,183.5 C 715.322,185.009 711.989,186.342 708.5,187.5C 709.306,186.272 710.306,185.272 711.5,184.5C 713.717,183.631 716.05,183.298 718.5,183.5 Z"/></g>
<g><path style="opacity:1" fill="#d24d4d" d="M 735.5,127.5 C 737.5,127.5 739.5,127.5 741.5,127.5C 743.153,127.66 744.486,128.326 745.5,129.5C 746.659,131.25 748.326,132.25 750.5,132.5C 754.973,135.467 757.973,139.467 759.5,144.5C 759.372,146.655 759.872,148.655 761,150.5C 761.292,169.511 761.792,188.511 762.5,207.5C 761.683,205.031 761.183,202.365 761,199.5C 760.667,183.833 760.333,168.167 760,152.5C 758.143,149.063 756.809,145.396 756,141.5C 754.89,139.963 753.39,139.297 751.5,139.5C 750.952,137.468 749.619,136.468 747.5,136.5C 747.762,135.022 747.429,133.689 746.5,132.5C 742.887,130.524 739.22,128.857 735.5,127.5 Z"/></g>
<g><path style="opacity:0.334" fill="#713834" d="M 735.5,179.5 C 737.265,178.539 739.265,178.205 741.5,178.5C 741.5,185.5 741.5,192.5 741.5,199.5C 740.833,199.5 740.167,199.5 739.5,199.5C 740.46,192.922 740.793,186.255 740.5,179.5C 738.833,179.5 737.167,179.5 735.5,179.5 Z"/></g>
<g><path style="opacity:0.675" fill="#7e3031" d="M 63.5,184.5 C 65.2132,185.635 65.8799,187.302 65.5,189.5C 64.0687,188.22 63.4021,186.553 63.5,184.5 Z"/></g>
<g><path style="opacity:1" fill="#e74546" d="M 426.5,182.5 C 428.341,186.183 430.674,189.516 433.5,192.5C 434.119,198.385 436.453,203.385 440.5,207.5C 440.031,210.393 441.031,212.393 443.5,213.5C 443.963,216.482 444.296,219.482 444.5,222.5C 437.833,222.5 431.167,222.5 424.5,222.5C 424.843,220.517 424.176,219.183 422.5,218.5C 420.862,214.54 418.862,210.874 416.5,207.5C 416.372,203.583 415.372,199.917 413.5,196.5C 412.964,193.615 413.13,190.615 414,187.5C 415,187.167 416,186.833 417,186.5C 421.442,189.595 423.276,188.262 422.5,182.5C 423.833,182.5 425.167,182.5 426.5,182.5 Z"/></g>
<g><path style="opacity:0.745" fill="#783031" d="M 142.5,180.5 C 138.742,183.557 134.742,186.39 130.5,189C 128.465,189.599 126.799,189.099 125.5,187.5C 129.775,188.25 133.109,186.917 135.5,183.5C 137.628,182.043 139.962,181.043 142.5,180.5 Z"/></g>
<g><path style="opacity:0.914" fill="#843638" d="M 309.5,180.5 C 309.116,184.923 307.449,188.59 304.5,191.5C 305.603,187.503 307.269,183.836 309.5,180.5 Z"/></g>
<g><path style="opacity:1" fill="#cd494b" d="M 602.5,184.5 C 602.421,185.93 602.754,187.264 603.5,188.5C 602.726,189.711 601.893,189.711 601,188.5C 600.52,190.133 599.687,191.466 598.5,192.5C 597.461,194.531 595.795,195.864 593.5,196.5C 594.34,194.147 595.674,192.147 597.5,190.5C 599.167,188.5 600.833,186.5 602.5,184.5 Z"/></g>
<g><path style="opacity:1" fill="#e84546" d="M 709.5,166.5 C 712.167,166.5 714.833,166.5 717.5,166.5C 719.857,166.337 722.19,166.503 724.5,167C 726.301,167.317 726.634,167.984 725.5,169C 719.659,169.047 713.992,169.714 708.5,171C 709.672,171.419 710.672,172.085 711.5,173C 716.5,173.333 721.5,173.667 726.5,174C 722.633,175.764 718.966,177.764 715.5,180C 718.482,180.498 721.482,180.665 724.5,180.5C 722.58,181.065 720.913,182.065 719.5,183.5C 719.167,183.5 718.833,183.5 718.5,183.5C 716.05,183.298 713.717,183.631 711.5,184.5C 707.594,184.714 703.761,185.381 700,186.5C 698.48,187.697 697.313,189.197 696.5,191C 697.725,196.787 698.558,202.62 699,208.5C 691.846,211.735 692.012,213.402 699.5,213.5C 700.038,215.117 700.371,216.784 700.5,218.5C 696.664,218.874 692.664,218.874 688.5,218.5C 687.656,216.241 685.989,215.241 683.5,215.5C 683.737,214.209 683.404,213.209 682.5,212.5C 680.51,204.256 680.177,195.922 681.5,187.5C 683.875,184.137 686.209,180.803 688.5,177.5C 688.833,176.833 689.167,176.167 689.5,175.5C 690.873,175.657 692.207,175.49 693.5,175C 698.54,171.317 703.873,168.484 709.5,166.5 Z"/></g>
<g><path style="opacity:0.576" fill="#86393a" d="M 708.5,187.5 C 707.101,188.89 705.434,189.89 703.5,190.5C 704.3,188.259 705.966,187.259 708.5,187.5 Z"/></g>
<g><path style="opacity:0.267" fill="#532027" d="M 77.5,188.5 C 78.9063,188.973 79.573,189.973 79.5,191.5C 78.0937,191.027 77.427,190.027 77.5,188.5 Z"/></g>
<g><path style="opacity:1" fill="#8c3534" d="M 65.5,190.5 C 68.6973,191.112 70.0306,193.112 69.5,196.5C 68.1798,194.537 66.8465,192.537 65.5,190.5 Z"/></g>
<g><path style="opacity:1" fill="#db494d" d="M 688.5,177.5 C 686.209,180.803 683.875,184.137 681.5,187.5C 680.177,195.922 680.51,204.256 682.5,212.5C 681.833,212.167 681.167,211.833 680.5,211.5C 678.263,203.263 677.929,194.93 679.5,186.5C 679.427,184.973 680.094,183.973 681.5,183.5C 683.833,181.5 686.167,179.5 688.5,177.5 Z"/></g>
<g><path style="opacity:0.702" fill="#752d3a" d="M 79.5,191.5 C 80.9063,191.973 81.573,192.973 81.5,194.5C 80.0937,194.027 79.427,193.027 79.5,191.5 Z"/></g>
<g><path style="opacity:1" fill="#e64647" d="M 237.5,171.5 C 235.681,175.522 234.347,179.856 233.5,184.5C 232.675,185.386 231.675,185.719 230.5,185.5C 230.662,187.527 230.495,189.527 230,191.5C 228.575,192.212 227.075,192.379 225.5,192C 227.155,193.444 227.822,195.278 227.5,197.5C 225.554,198.035 224.554,199.368 224.5,201.5C 223.167,201.5 221.833,201.5 220.5,201.5C 220.033,203.711 219.033,205.711 217.5,207.5C 216.549,206.674 215.549,206.508 214.5,207C 215.38,208.356 215.714,209.856 215.5,211.5C 214.5,212.167 213.5,212.833 212.5,213.5C 211.167,213.5 209.833,213.5 208.5,213.5C 208.5,214.833 208.5,216.167 208.5,217.5C 207.022,217.238 205.689,217.571 204.5,218.5C 202.625,220.926 200.291,222.593 197.5,223.5C 195.05,222.289 193.05,220.622 191.5,218.5C 196.809,214.197 202.142,209.863 207.5,205.5C 212.027,203.641 214.694,200.308 215.5,195.5C 224.019,188.088 228.685,178.754 229.5,167.5C 230.222,167.082 230.722,166.416 231,165.5C 231.497,162.854 231.664,160.187 231.5,157.5C 231.5,156.5 231.5,155.5 231.5,154.5C 233.019,151.474 233.685,148.141 233.5,144.5C 233.165,139.828 232.832,135.161 232.5,130.5C 232.338,128.473 232.505,126.473 233,124.5C 234.011,123.663 235.178,123.33 236.5,123.5C 236.201,121.396 236.534,119.396 237.5,117.5C 238.251,118.376 238.751,119.376 239,120.5C 241.314,138.379 240.814,155.379 237.5,171.5 Z"/></g>
<g><path style="opacity:1" fill="#e44647" d="M 63.5,150.5 C 63.5,150.833 63.5,151.167 63.5,151.5C 63.2101,161.347 65.5434,170.347 70.5,178.5C 71.8694,182.595 74.2027,185.928 77.5,188.5C 77.427,190.027 78.0937,191.027 79.5,191.5C 79.427,193.027 80.0937,194.027 81.5,194.5C 82.0798,196.749 83.4131,198.415 85.5,199.5C 89.1925,202.862 92.8592,206.195 96.5,209.5C 99.6654,213.317 103.665,215.984 108.5,217.5C 109.306,218.728 110.306,219.728 111.5,220.5C 113.41,222.562 115.743,224.062 118.5,225C 115.819,225.458 113.319,226.291 111,227.5C 105.874,226.191 101.041,224.525 96.5,222.5C 96.5,221.5 96.5,220.5 96.5,219.5C 95.1667,219.5 93.8333,219.5 92.5,219.5C 91.8333,219.5 91.1667,219.5 90.5,219.5C 89.4154,217.413 87.7488,216.08 85.5,215.5C 84.5,212.5 82.5,210.5 79.5,209.5C 78.8645,207.205 77.5311,205.539 75.5,204.5C 74.4488,201.039 72.4488,198.373 69.5,196.5C 70.0306,193.112 68.6973,191.112 65.5,190.5C 65.5,190.167 65.5,189.833 65.5,189.5C 65.8799,187.302 65.2132,185.635 63.5,184.5C 62.7345,181.33 61.7345,178.33 60.5,175.5C 58.9225,166.933 58.2558,158.266 58.5,149.5C 58.4701,148.503 58.9701,147.836 60,147.5C 61.1739,148.544 62.3406,149.544 63.5,150.5 Z"/></g>
<g><path style="opacity:0.804" fill="#913d3d" d="M 411.5,196.5 C 411.5,196.833 411.5,197.167 411.5,197.5C 383.165,197.333 354.831,197.5 326.5,198C 325.771,200.058 324.771,201.891 323.5,203.5C 324.092,200.873 324.425,198.206 324.5,195.5C 353.671,195.169 382.671,195.502 411.5,196.5 Z"/></g>
<g><path style="opacity:0.906" fill="#873b3b" d="M 433.5,192.5 C 436.616,197.07 438.95,202.07 440.5,207.5C 436.453,203.385 434.119,198.385 433.5,192.5 Z"/></g>
<g><path style="opacity:0.976" fill="#903d41" d="M 488.5,191.5 C 489.537,192.93 490.204,194.597 490.5,196.5C 488.744,195.448 488.077,193.781 488.5,191.5 Z"/></g>
<g><path style="opacity:0.937" fill="#76302f" d="M 69.5,196.5 C 72.4488,198.373 74.4488,201.039 75.5,204.5C 73.0252,202.23 71.0252,199.563 69.5,196.5 Z"/></g>
<g><path style="opacity:0.6" fill="#802e34" d="M 81.5,194.5 C 83.5869,195.585 84.9202,197.251 85.5,199.5C 83.4131,198.415 82.0798,196.749 81.5,194.5 Z"/></g>
<g><path style="opacity:0.12" fill="#64332f" d="M 701.5,193.5 C 700.612,196.054 700.279,198.721 700.5,201.5C 699.844,200.378 699.511,199.045 699.5,197.5C 699.585,195.667 700.252,194.334 701.5,193.5 Z"/></g>
<g><path style="opacity:1" fill="#ae4041" d="M 411.5,196.5 C 412.167,196.5 412.833,196.5 413.5,196.5C 415.372,199.917 416.372,203.583 416.5,207.5C 414.341,204.516 412.675,201.183 411.5,197.5C 411.5,197.167 411.5,196.833 411.5,196.5 Z"/></g>
<g><path style="opacity:0.408" fill="#742e2c" d="M 490.5,196.5 C 491.906,196.973 492.573,197.973 492.5,199.5C 491.833,199.167 491.167,198.833 490.5,198.5C 490.5,197.833 490.5,197.167 490.5,196.5 Z"/></g>
<g><path style="opacity:0.176" fill="#7a322d" d="M 227.5,197.5 C 226.974,199.23 225.974,200.564 224.5,201.5C 224.554,199.368 225.554,198.035 227.5,197.5 Z"/></g>
<g><path style="opacity:1" fill="#a84042" d="M 593.5,196.5 C 593.736,201.037 591.736,204.037 587.5,205.5C 588.759,201.975 590.759,198.975 593.5,196.5 Z"/></g>
<g><path style="opacity:0.667" fill="#863a3b" d="M 679.5,186.5 C 677.929,194.93 678.263,203.263 680.5,211.5C 677.598,207.786 676.265,203.453 676.5,198.5C 676.274,194.069 677.274,190.069 679.5,186.5 Z"/></g>
<g><path style="opacity:1" fill="#b94249" d="M 215.5,195.5 C 214.694,200.308 212.027,203.641 207.5,205.5C 207.5,205.167 207.5,204.833 207.5,204.5C 209.472,200.895 212.139,197.895 215.5,195.5 Z"/></g>
<g><path style="opacity:0.694" fill="#873b39" d="M 467.5,199.5 C 468.167,199.833 468.833,200.167 469.5,200.5C 469.833,202.5 470.167,204.5 470.5,206.5C 468.552,204.68 467.552,202.346 467.5,199.5 Z"/></g>
<g><path style="opacity:0.74" fill="#994344" d="M 620.5,191.5 C 619.111,194.607 617.445,197.607 615.5,200.5C 630.156,201.568 644.489,202.901 658.5,204.5C 658.818,209.032 658.485,213.366 657.5,217.5C 657.8,212.901 657.467,208.401 656.5,204C 641.798,204.153 627.465,203.32 613.5,201.5C 613.893,199.716 614.559,198.05 615.5,196.5C 616.939,194.64 618.605,192.973 620.5,191.5 Z"/></g>
<g><path style="opacity:1" fill="#b4494a" d="M 739.5,199.5 C 740.167,199.5 740.833,199.5 741.5,199.5C 739.36,202.613 736.36,203.946 732.5,203.5C 734.663,201.917 736.996,200.584 739.5,199.5 Z"/></g>
<g><path style="opacity:1" fill="#e64647" d="M 598.5,192.5 C 598.369,193.239 598.536,193.906 599,194.5C 600.183,193.269 601.349,193.269 602.5,194.5C 600.774,196.228 599.441,198.228 598.5,200.5C 599.689,201.429 601.022,201.762 602.5,201.5C 602.167,203.5 601.833,205.5 601.5,207.5C 605.95,208.974 610.284,208.641 614.5,206.5C 613,205.5 611.5,204.5 610,203.5C 608.739,203.759 607.739,204.426 607,205.5C 605.943,203.781 605.11,201.947 604.5,200C 606.953,195.509 610.62,194.343 615.5,196.5C 614.559,198.05 613.893,199.716 613.5,201.5C 612.596,202.209 612.263,203.209 612.5,204.5C 615.167,204.5 617.833,204.5 620.5,204.5C 618.614,205.065 616.947,206.065 615.5,207.5C 616.667,207.833 617.833,208.167 619,208.5C 630.83,207.24 642.663,207.24 654.5,208.5C 633.844,209.5 613.177,209.833 592.5,209.5C 593.124,213.005 592.124,215.838 589.5,218C 588.852,219.44 588.519,220.94 588.5,222.5C 586.5,222.5 584.5,222.5 582.5,222.5C 581.266,219.535 581.266,216.535 582.5,213.5C 585.833,211.841 587.5,209.175 587.5,205.5C 591.736,204.037 593.736,201.037 593.5,196.5C 595.795,195.864 597.461,194.531 598.5,192.5 Z"/></g>
<g><path style="opacity:0.882" fill="#7a3534" d="M 75.5,204.5 C 77.5311,205.539 78.8645,207.205 79.5,209.5C 77.457,208.421 76.1237,206.754 75.5,204.5 Z"/></g>
<g><path style="opacity:1" fill="#9b4041" d="M 304.5,191.5 C 301.656,200.189 297.989,208.523 293.5,216.5C 293.167,216.5 292.833,216.5 292.5,216.5C 295.697,207.774 299.697,199.44 304.5,191.5 Z"/></g>
<g><path style="opacity:1" fill="#af4241" d="M 224.5,201.5 C 222.183,205.146 219.516,208.48 216.5,211.5C 216.167,211.5 215.833,211.5 215.5,211.5C 215.714,209.856 215.38,208.356 214.5,207C 215.549,206.508 216.549,206.674 217.5,207.5C 219.033,205.711 220.033,203.711 220.5,201.5C 221.833,201.5 223.167,201.5 224.5,201.5 Z"/></g>
<g><path style="opacity:0.361" fill="#6d312f" d="M 323.5,203.5 C 323.34,205.153 322.674,206.486 321.5,207.5C 321.229,205.62 321.896,204.287 323.5,203.5 Z"/></g>
<g><path style="opacity:1" fill="#bb4548" d="M 732.5,203.5 C 732.586,204.496 732.252,205.329 731.5,206C 730.263,206.232 729.263,206.732 728.5,207.5C 727.167,207.5 725.833,207.5 724.5,207.5C 725.5,206.833 726.5,206.167 727.5,205.5C 728.78,204.069 730.447,203.402 732.5,203.5 Z"/></g>
<g><path style="opacity:1" fill="#e84446" d="M 620.5,204.5 C 632.171,204.333 643.838,204.5 655.5,205C 656.475,210.741 656.808,216.575 656.5,222.5C 633.833,222.5 611.167,222.5 588.5,222.5C 588.519,220.94 588.852,219.44 589.5,218C 592.124,215.838 593.124,213.005 592.5,209.5C 613.177,209.833 633.844,209.5 654.5,208.5C 642.663,207.24 630.83,207.24 619,208.5C 617.833,208.167 616.667,207.833 615.5,207.5C 616.947,206.065 618.614,205.065 620.5,204.5 Z"/></g>
<g><path style="opacity:0.397" fill="#8b3b39" d="M 700.5,201.5 C 702.574,204.05 705.241,205.883 708.5,207C 714.913,207.559 721.247,207.059 727.5,205.5C 726.5,206.167 725.5,206.833 724.5,207.5C 716.212,209.365 708.212,208.698 700.5,205.5C 700.5,204.167 700.5,202.833 700.5,201.5 Z"/></g>
<g><path style="opacity:1" fill="#99393b" d="M 321.5,207.5 C 320.537,210.744 319.204,213.744 317.5,216.5C 318.159,213.545 318.492,210.545 318.5,207.5C 319.5,207.5 320.5,207.5 321.5,207.5 Z"/></g>
<g><path style="opacity:0.894" fill="#8d3635" d="M 470.5,206.5 C 473.061,208.15 474.727,210.484 475.5,213.5C 473.1,211.704 471.433,209.37 470.5,206.5 Z"/></g>
<g><path style="opacity:1" fill="#e54647" d="M 540.5,128.5 C 540.178,150.546 540.511,172.546 541.5,194.5C 539.696,195.768 537.696,196.435 535.5,196.5C 535.5,197.833 535.5,199.167 535.5,200.5C 537.655,200.372 539.655,200.872 541.5,202C 540.833,202.333 540.167,202.667 539.5,203C 541.265,204.479 542.599,206.312 543.5,208.5C 543.774,211.031 543.107,213.531 541.5,216C 541.605,217.592 541.939,219.092 542.5,220.5C 541.833,220.5 541.167,220.5 540.5,220.5C 539.982,218.099 538.815,216.099 537,214.5C 535.05,214.707 533.884,215.707 533.5,217.5C 527.279,218.302 521.613,220.468 516.5,224C 510.167,224.667 503.833,224.667 497.5,224C 494.321,222.539 490.988,221.705 487.5,221.5C 487.5,220.833 487.5,220.167 487.5,219.5C 490.5,219.833 491.833,218.5 491.5,215.5C 490.448,215.649 489.448,215.483 488.5,215C 490.936,215.053 493.269,214.887 495.5,214.5C 494.975,213.808 494.308,213.308 493.5,213C 495.911,211.115 497.245,208.949 497.5,206.5C 496.68,204.889 495.346,204.222 493.5,204.5C 494.284,210.402 492.284,211.735 487.5,208.5C 488.325,207.614 489.325,207.281 490.5,207.5C 490.719,206.325 490.386,205.325 489.5,204.5C 485.53,202.608 485.863,201.608 490.5,201.5C 490.5,200.5 490.5,199.5 490.5,198.5C 491.167,198.833 491.833,199.167 492.5,199.5C 493.392,202.292 495.392,203.625 498.5,203.5C 498.611,204.117 498.944,204.617 499.5,205C 505.442,206.406 511.442,206.739 517.5,206C 518.942,205.623 519.942,204.79 520.5,203.5C 520.833,203.5 521.167,203.5 521.5,203.5C 523.655,203.628 525.655,203.128 527.5,202C 531,199.331 534.333,196.498 537.5,193.5C 539.163,172.019 540.163,150.353 540.5,128.5 Z"/></g>
<g><path style="opacity:0.373" fill="#823431" d="M 498.5,203.5 C 505.844,206.095 513.177,206.095 520.5,203.5C 519.942,204.79 518.942,205.623 517.5,206C 511.442,206.739 505.442,206.406 499.5,205C 498.944,204.617 498.611,204.117 498.5,203.5 Z"/></g>
<g><path style="opacity:0.796" fill="#85353c" d="M 492.5,199.5 C 494.795,200.475 496.795,201.808 498.5,203.5C 495.392,203.625 493.392,202.292 492.5,199.5 Z"/></g>
<g><path style="opacity:1" fill="#de4849" d="M 711.5,184.5 C 710.306,185.272 709.306,186.272 708.5,187.5C 705.966,187.259 704.3,188.259 703.5,190.5C 702.833,191.5 702.167,192.5 701.5,193.5C 700.252,194.334 699.585,195.667 699.5,197.5C 699.511,199.045 699.844,200.378 700.5,201.5C 700.5,202.833 700.5,204.167 700.5,205.5C 708.212,208.698 716.212,209.365 724.5,207.5C 725.833,207.5 727.167,207.5 728.5,207.5C 727.048,208.302 725.382,208.802 723.5,209C 726.177,209.249 728.51,210.249 730.5,212C 727.488,213.477 724.488,213.144 721.5,211C 715.295,210.968 709.295,210.134 703.5,208.5C 700.511,208.801 699.178,210.468 699.5,213.5C 692.012,213.402 691.846,211.735 699,208.5C 698.558,202.62 697.725,196.787 696.5,191C 697.313,189.197 698.48,187.697 700,186.5C 703.761,185.381 707.594,184.714 711.5,184.5 Z"/></g>
<g><path style="opacity:0.78" fill="#7e3333" d="M 79.5,209.5 C 82.5,210.5 84.5,212.5 85.5,215.5C 83.1667,213.833 81.1667,211.833 79.5,209.5 Z"/></g>
<g><path style="opacity:0.922" fill="#77302d" d="M 96.5,209.5 C 100.795,211.808 104.795,214.474 108.5,217.5C 103.665,215.984 99.6654,213.317 96.5,209.5 Z"/></g>
<g><path style="opacity:0.988" fill="#9c3f43" d="M 440.5,207.5 C 442.008,209.181 443.008,211.181 443.5,213.5C 441.031,212.393 440.031,210.393 440.5,207.5 Z"/></g>
<g><path style="opacity:0.737" fill="#9f4043" d="M 587.5,205.5 C 587.5,209.175 585.833,211.841 582.5,213.5C 583.669,210.489 585.336,207.822 587.5,205.5 Z"/></g>
<g><path style="opacity:0.125" fill="#6a2f25" d="M 215.5,211.5 C 215.833,211.5 216.167,211.5 216.5,211.5C 215.5,213.167 214.167,214.5 212.5,215.5C 212.5,214.833 212.5,214.167 212.5,213.5C 213.5,212.833 214.5,212.167 215.5,211.5 Z"/></g>
<g><path style="opacity:1" fill="#9c4348" d="M 680.5,211.5 C 681.167,211.833 681.833,212.167 682.5,212.5C 683.404,213.209 683.737,214.209 683.5,215.5C 681.738,214.738 680.738,213.404 680.5,211.5 Z"/></g>
<g><path style="opacity:0.933" fill="#974343" d="M 745.5,216.5 C 745.4,219.108 746.067,221.442 747.5,223.5C 746.542,223.047 745.708,222.381 745,221.5C 744.64,219.392 743.973,217.392 743,215.5C 740.842,217.494 738.342,218.828 735.5,219.5C 737.182,216.985 739.348,214.985 742,213.5C 743.95,213.707 745.116,214.707 745.5,216.5 Z"/></g>
<g><path style="opacity:0.769" fill="#792f32" d="M 85.5,215.5 C 87.7488,216.08 89.4154,217.413 90.5,219.5C 88.2512,218.92 86.5846,217.587 85.5,215.5 Z"/></g>
<g><path style="opacity:0.404" fill="#783433" d="M 540.5,220.5 C 541.11,221.391 541.443,222.391 541.5,223.5C 538.73,221.634 537.23,218.968 537,215.5C 535.887,216.305 534.721,216.972 533.5,217.5C 533.884,215.707 535.05,214.707 537,214.5C 538.815,216.099 539.982,218.099 540.5,220.5 Z"/></g>
<g><path style="opacity:1" fill="#b24846" d="M 683.5,215.5 C 685.989,215.241 687.656,216.241 688.5,218.5C 688.833,219.167 689.167,219.833 689.5,220.5C 686.712,219.774 684.712,218.107 683.5,215.5 Z"/></g>
<g><path style="opacity:1" fill="#ae4245" d="M 475.5,213.5 C 477.196,213.685 478.529,214.519 479.5,216C 481.134,216.494 482.801,216.66 484.5,216.5C 484.5,218.5 485.5,219.5 487.5,219.5C 487.5,220.167 487.5,220.833 487.5,221.5C 482.678,220.002 478.678,217.336 475.5,213.5 Z"/></g>
<g><path style="opacity:0.737" fill="#773837" d="M 317.5,216.5 C 316.921,219.331 315.588,221.664 313.5,223.5C 313.833,222.167 314.167,220.833 314.5,219.5C 315.1,218.1 316.1,217.1 317.5,216.5 Z"/></g>
<g><path style="opacity:1" fill="#963d40" d="M 582.5,213.5 C 581.266,216.535 581.266,219.535 582.5,222.5C 582.5,222.833 582.5,223.167 582.5,223.5C 580.414,222.852 579.414,221.352 579.5,219C 579.613,216.601 580.613,214.768 582.5,213.5 Z"/></g>
<g><path style="opacity:0.731" fill="#773333" d="M 658.5,204.5 C 659.653,210.319 659.819,216.319 659,222.5C 658.228,223.849 657.061,224.682 655.5,225C 631.833,225.667 608.167,225.667 584.5,225C 583.584,224.722 582.918,224.222 582.5,223.5C 607.5,223.5 632.5,223.5 657.5,223.5C 657.5,221.5 657.5,219.5 657.5,217.5C 658.485,213.366 658.818,209.032 658.5,204.5 Z"/></g>
<g><path style="opacity:0.294" fill="#692b2b" d="M 108.5,217.5 C 110.819,217.992 112.819,218.992 114.5,220.5C 113.5,220.5 112.5,220.5 111.5,220.5C 110.306,219.728 109.306,218.728 108.5,217.5 Z"/></g>
<g><path style="opacity:1" fill="#90393a" d="M 207.5,204.5 C 207.5,204.833 207.5,205.167 207.5,205.5C 202.142,209.863 196.809,214.197 191.5,218.5C 186.425,220.969 181.092,222.636 175.5,223.5C 187.166,218.831 197.832,212.498 207.5,204.5 Z"/></g>
<g><path style="opacity:0.443" fill="#893536" d="M 416.5,207.5 C 418.862,210.874 420.862,214.54 422.5,218.5C 423.234,219.708 423.567,221.041 423.5,222.5C 420.378,217.919 418.044,212.919 416.5,207.5 Z"/></g>
<g><path style="opacity:0.847" fill="#7d3233" d="M 90.5,219.5 C 91.1667,219.5 91.8333,219.5 92.5,219.5C 93.5,220.833 94.5,222.167 95.5,223.5C 93.2512,222.92 91.5846,221.587 90.5,219.5 Z"/></g>
<g><path style="opacity:1" fill="#ae4042" d="M 212.5,213.5 C 212.5,214.167 212.5,214.833 212.5,215.5C 208.003,219.909 203.003,223.576 197.5,226.5C 198.625,225.348 198.625,224.348 197.5,223.5C 200.291,222.593 202.625,220.926 204.5,218.5C 205.689,217.571 207.022,217.238 208.5,217.5C 208.5,216.167 208.5,214.833 208.5,213.5C 209.833,213.5 211.167,213.5 212.5,213.5 Z"/></g>
<g><path style="opacity:0.208" fill="#6c2f30" d="M 735.5,219.5 C 734.713,221.104 733.38,221.771 731.5,221.5C 732.514,220.326 733.847,219.66 735.5,219.5 Z"/></g>
<g><path style="opacity:0.404" fill="#6a302d" d="M 731.5,221.5 C 729.898,223.074 727.898,223.741 725.5,223.5C 727.214,222.262 729.214,221.595 731.5,221.5 Z"/></g>
<g><path style="opacity:1" fill="#d64e50" d="M 292.5,216.5 C 292.833,216.5 293.167,216.5 293.5,216.5C 292.85,218.435 292.517,220.435 292.5,222.5C 299.167,222.5 305.833,222.5 312.5,222.5C 312.285,220.821 312.952,219.821 314.5,219.5C 314.167,220.833 313.833,222.167 313.5,223.5C 306.167,223.5 298.833,223.5 291.5,223.5C 291.5,221.833 291.5,220.167 291.5,218.5C 291.328,217.508 291.662,216.842 292.5,216.5 Z"/></g>
<g><path style="opacity:1" fill="#cf4e50" d="M 443.5,213.5 C 444.674,214.514 445.34,215.847 445.5,217.5C 445.357,219.262 445.691,220.929 446.5,222.5C 439.197,223.497 431.863,223.831 424.5,223.5C 423.833,223.5 423.5,223.167 423.5,222.5C 423.567,221.041 423.234,219.708 422.5,218.5C 424.176,219.183 424.843,220.517 424.5,222.5C 431.167,222.5 437.833,222.5 444.5,222.5C 444.296,219.482 443.963,216.482 443.5,213.5 Z"/></g>
<g><path style="opacity:1" fill="#d94f52" d="M 613.5,201.5 C 627.465,203.32 641.798,204.153 656.5,204C 657.467,208.401 657.8,212.901 657.5,217.5C 657.5,219.5 657.5,221.5 657.5,223.5C 632.5,223.5 607.5,223.5 582.5,223.5C 582.5,223.167 582.5,222.833 582.5,222.5C 584.5,222.5 586.5,222.5 588.5,222.5C 611.167,222.5 633.833,222.5 656.5,222.5C 656.808,216.575 656.475,210.741 655.5,205C 643.838,204.5 632.171,204.333 620.5,204.5C 617.833,204.5 615.167,204.5 612.5,204.5C 612.263,203.209 612.596,202.209 613.5,201.5 Z"/></g>
<g><path style="opacity:1" fill="#d24e4f" d="M 762.5,207.5 C 762.833,207.5 763.167,207.5 763.5,207.5C 763.833,208.167 764.167,208.833 764.5,209.5C 763.514,213.97 763.181,218.637 763.5,223.5C 758.167,223.5 752.833,223.5 747.5,223.5C 746.067,221.442 745.4,219.108 745.5,216.5C 746.304,218.189 747.304,219.855 748.5,221.5C 753.12,222.493 757.786,222.827 762.5,222.5C 762.5,217.5 762.5,212.5 762.5,207.5 Z"/></g>
<g><path style="opacity:0.697" fill="#7d383a" d="M 291.5,218.5 C 291.5,220.167 291.5,221.833 291.5,223.5C 298.833,223.5 306.167,223.5 313.5,223.5C 313.082,224.222 312.416,224.722 311.5,225C 305.167,225.667 298.833,225.667 292.5,225C 288.879,223.311 288.546,221.144 291.5,218.5 Z"/></g>
<g><path style="opacity:0.707" fill="#7e383b" d="M 445.5,217.5 C 447.974,220.021 447.974,222.521 445.5,225C 439.167,225.667 432.833,225.667 426.5,225C 425.584,224.722 424.918,224.222 424.5,223.5C 431.863,223.831 439.197,223.497 446.5,222.5C 445.691,220.929 445.357,219.262 445.5,217.5 Z"/></g>
<g><path style="opacity:0.69" fill="#803c40" d="M 541.5,223.5 C 547.5,223.5 553.5,223.5 559.5,223.5C 559.082,224.222 558.416,224.722 557.5,225C 555.333,225.167 553.167,225.333 551,225.5C 547.523,225.672 544.356,225.006 541.5,223.5 Z"/></g>
<g><path style="opacity:0.675" fill="#873f42" d="M 764.5,209.5 C 764.32,213.215 764.654,216.882 765.5,220.5C 765.363,222.107 764.696,223.441 763.5,224.5C 758.889,225.61 754.222,225.777 749.5,225C 748.584,224.722 747.918,224.222 747.5,223.5C 752.833,223.5 758.167,223.5 763.5,223.5C 763.181,218.637 763.514,213.97 764.5,209.5 Z"/></g>
<g><path style="opacity:0.729" fill="#913a3b" d="M 533.5,217.5 C 518.857,227.595 503.524,228.929 487.5,221.5C 490.988,221.705 494.321,222.539 497.5,224C 503.833,224.667 510.167,224.667 516.5,224C 521.613,220.468 527.279,218.302 533.5,217.5 Z"/></g>
<g><path style="opacity:0.596" fill="#913c3f" d="M 689.5,220.5 C 694.067,221.943 698.734,223.11 703.5,224C 710.852,224.582 718.185,224.415 725.5,223.5C 724.391,224.29 723.058,224.79 721.5,225C 714.5,225.667 707.5,225.667 700.5,225C 696.381,224.356 692.715,222.856 689.5,220.5 Z"/></g>
<g><path style="opacity:0.792" fill="#913638" d="M 95.5,223.5 C 96.8734,223.343 98.2068,223.51 99.5,224C 101.621,225.749 103.621,227.582 105.5,229.5C 101.495,228.502 98.1612,226.502 95.5,223.5 Z"/></g>
<g><path style="opacity:1" fill="#e84546" d="M 130.5,236.5 C 127.833,236.5 125.167,236.5 122.5,236.5C 120.167,235.167 117.833,233.833 115.5,232.5C 114.602,231.842 113.602,231.176 112.5,230.5C 116.836,226.947 121.502,226.614 126.5,229.5C 128.307,229.028 130.14,228.694 132,228.5C 137.323,229.249 142.656,229.915 148,230.5C 154.498,229.555 160.998,229.055 167.5,229C 162.922,230.778 158.922,233.278 155.5,236.5C 147.081,235.666 138.748,235.666 130.5,236.5 Z"/></g>
<g><path style="opacity:1" fill="#ea4443" d="M 185.5,231.5 C 183.621,232.341 181.621,232.675 179.5,232.5C 173.955,233.462 168.622,234.795 163.5,236.5C 163.5,235.5 163.5,234.5 163.5,233.5C 165.857,233.663 168.19,233.497 170.5,233C 171.071,231.795 171.738,230.628 172.5,229.5C 174.514,228.064 176.514,226.73 178.5,225.5C 179.167,225.667 179.833,225.833 180.5,226C 179.289,226.893 179.289,227.726 180.5,228.5C 182.198,227.319 183.865,227.319 185.5,228.5C 186.791,229.527 186.791,230.527 185.5,231.5 Z"/></g>
<g><path style="opacity:0.353" fill="#722b2f" d="M 191.5,228.5 C 192.167,228.5 192.833,228.5 193.5,228.5C 192.341,230.25 190.674,231.25 188.5,231.5C 189.306,230.272 190.306,229.272 191.5,228.5 Z"/></g>
<g><path style="opacity:0.929" fill="#9a3b3e" d="M 105.5,229.5 C 108.313,229.025 110.313,230.025 111.5,232.5C 109.033,232.245 107.033,231.245 105.5,229.5 Z"/></g>
<g><path style="opacity:1" fill="#8e3736" d="M 185.5,231.5 C 186.5,231.5 187.5,231.5 188.5,231.5C 183.052,234.872 177.052,236.872 170.5,237.5C 172.949,236.209 175.616,235.209 178.5,234.5C 179.298,234.043 179.631,233.376 179.5,232.5C 181.621,232.675 183.621,232.341 185.5,231.5 Z"/></g>
<g><path style="opacity:0.729" fill="#7b3332" d="M 111.5,232.5 C 112.833,232.5 114.167,232.5 115.5,232.5C 117.833,233.833 120.167,235.167 122.5,236.5C 118.463,235.935 114.797,234.601 111.5,232.5 Z"/></g>
<g><path style="opacity:1" fill="#df484a" d="M 191.5,218.5 C 193.05,220.622 195.05,222.289 197.5,223.5C 198.625,224.348 198.625,225.348 197.5,226.5C 196.486,227.674 195.153,228.34 193.5,228.5C 192.833,228.5 192.167,228.5 191.5,228.5C 190.306,229.272 189.306,230.272 188.5,231.5C 187.5,231.5 186.5,231.5 185.5,231.5C 186.791,230.527 186.791,229.527 185.5,228.5C 183.865,227.319 182.198,227.319 180.5,228.5C 179.289,227.726 179.289,226.893 180.5,226C 179.833,225.833 179.167,225.667 178.5,225.5C 176.514,226.73 174.514,228.064 172.5,229.5C 171.738,230.628 171.071,231.795 170.5,233C 168.19,233.497 165.857,233.663 163.5,233.5C 163.5,234.5 163.5,235.5 163.5,236.5C 168.622,234.795 173.955,233.462 179.5,232.5C 179.631,233.376 179.298,234.043 178.5,234.5C 175.616,235.209 172.949,236.209 170.5,237.5C 170.167,237.5 169.833,237.5 169.5,237.5C 167.097,237.448 164.764,237.781 162.5,238.5C 153.161,238.666 143.827,238.5 134.5,238C 132.942,237.79 131.609,237.29 130.5,236.5C 138.748,235.666 147.081,235.666 155.5,236.5C 158.922,233.278 162.922,230.778 167.5,229C 160.998,229.055 154.498,229.555 148,230.5C 142.656,229.915 137.323,229.249 132,228.5C 130.14,228.694 128.307,229.028 126.5,229.5C 121.502,226.614 116.836,226.947 112.5,230.5C 113.602,231.176 114.602,231.842 115.5,232.5C 114.167,232.5 112.833,232.5 111.5,232.5C 110.313,230.025 108.313,229.025 105.5,229.5C 103.621,227.582 101.621,225.749 99.5,224C 98.2068,223.51 96.8734,223.343 95.5,223.5C 94.5,222.167 93.5,220.833 92.5,219.5C 93.8333,219.5 95.1667,219.5 96.5,219.5C 96.5,220.5 96.5,221.5 96.5,222.5C 101.041,224.525 105.874,226.191 111,227.5C 113.319,226.291 115.819,225.458 118.5,225C 115.743,224.062 113.41,222.562 111.5,220.5C 112.5,220.5 113.5,220.5 114.5,220.5C 115.492,220.328 116.158,220.662 116.5,221.5C 117.635,223.213 119.302,223.88 121.5,223.5C 122.167,223.5 122.833,223.5 123.5,223.5C 127.134,226.633 131.467,228.133 136.5,228C 144.5,228.667 152.5,228.667 160.5,228C 163.191,227.844 165.524,227.011 167.5,225.5C 170.067,224.525 172.733,223.858 175.5,223.5C 181.092,222.636 186.425,220.969 191.5,218.5 Z"/></g>
<g><path style="opacity:1" fill="#923b36" d="M 123.5,223.5 C 137.978,227.934 152.645,228.6 167.5,225.5C 165.524,227.011 163.191,227.844 160.5,228C 152.5,228.667 144.5,228.667 136.5,228C 131.467,228.133 127.134,226.633 123.5,223.5 Z"/></g>
<g><path style="opacity:1" fill="#e74544" d="M 191.5,228.5 C 188.937,227.8 186.437,226.8 184,225.5C 182.743,225.15 182.409,224.483 183,223.5C 186.958,220.781 190.791,220.948 194.5,224C 192.859,225.129 191.859,226.629 191.5,228.5 Z"/></g>
<g><path style="opacity:0.596" fill="#792c2f" d="M 116.5,221.5 C 118.553,221.402 120.22,222.069 121.5,223.5C 119.302,223.88 117.635,223.213 116.5,221.5 Z"/></g>
<g><path style="opacity:0.251" fill="#6f2d2b" d="M 169.5,237.5 C 167.401,238.612 165.067,239.279 162.5,239.5C 162.5,239.167 162.5,238.833 162.5,238.5C 164.764,237.781 167.097,237.448 169.5,237.5 Z"/></g>
<g><path style="opacity:0.853" fill="#af4342" d="M 122.5,236.5 C 125.167,236.5 127.833,236.5 130.5,236.5C 131.609,237.29 132.942,237.79 134.5,238C 143.827,238.5 153.161,238.666 162.5,238.5C 162.5,238.833 162.5,239.167 162.5,239.5C 151.828,239.667 141.161,239.5 130.5,239C 127.621,238.454 124.954,237.621 122.5,236.5 Z"/></g>
</svg>
